<?xml version="1.0" standalone="no"?>
<!DOCTYPE svg PUBLIC "-//W3C//DTD SVG 1.1//EN" "http://www.w3.org/Graphics/SVG/1.1/DTD/svg11.dtd" >
<svg xmlns="http://www.w3.org/2000/svg">
<metadata></metadata>
<defs>
<font id="MeodedPashut_OERegularRegular" horiz-adv-x="0" >
<font-face units-per-em="1000" ascent="700" descent="-300" />
<missing-glyph horiz-adv-x="200" />
<glyph />
<glyph horiz-adv-x="1000" />
<glyph unicode="&#xd;" horiz-adv-x="259" />
<glyph unicode=" "  horiz-adv-x="200" />
<glyph unicode="&#x09;" horiz-adv-x="200" />
<glyph unicode="&#xa0;" horiz-adv-x="200" />
<glyph unicode="!" horiz-adv-x="223" d="M132 173h-66l-16 338h103zM53 0v97h97v-97h-97z" />
<glyph unicode="&#x22;" horiz-adv-x="302" d="M191 389l-26 13l23 104v103h89v-83zM50 389l-25 13l23 104v103h89v-83z" />
<glyph unicode="#" horiz-adv-x="482" d="M362 302l-17 -93h86v-66h-99l-20 -106h-66l20 106h-93l-20 -106h-66l20 106h-87v66h99l18 93h-87v66h99l20 106h66l-20 -106h94l20 106h66l-20 -106h87v-66h-100zM199 307l-19 -103h103l19 103h-103z" />
<glyph unicode="$" horiz-adv-x="403" d="M304 414q-46 37 -97 37q-30 0 -48 -21t-18 -46.5t15.5 -42.5t39.5 -30.5t51 -27t51 -31.5q55 -41 55 -108q0 -52 -35 -94q-32 -38 -82 -49q0 -19 5 -64h-81l4 58q-62 4 -114 36l36 74q56 -43 102 -43q37 0 60 27q20 24 20 52t-16 45t-39.5 31t-51 27t-51.5 32 q-55 43 -55 107q0 48 33 87q29 33 76 44l-4 53h81l-5 -50q60 -6 98 -31z" />
<glyph unicode="%" horiz-adv-x="534" d="M404 -22q-100 0 -100 152q0 57 28 96.5t75 39.5q97 0 97 -142q0 -67 -26 -106.5t-74 -39.5zM437 58q10 19 10 66.5t-10 63.5q-9 18 -31 18q-44 0 -44 -80q0 -45 9.5 -66t32 -21t33.5 19zM122 -22l-58 39l348 516l58 -39zM230 391q0 -66 -26 -107q-27 -39 -76 -39t-74 36 q-24 37 -24 105.5t28 106.5q27 40 75 40q97 0 97 -142zM87 392q0 -45 9.5 -65.5t33 -20.5t33.5 19.5t10 64.5t-9.5 63.5t-32.5 18.5q-44 0 -44 -80z" />
<glyph unicode="&#x26;" horiz-adv-x="487" d="M388 121q43 -52 82 -79l-47 -55q-44 28 -80 70q-65 -66 -146.5 -66t-129.5 54q-38 47 -38 100q0 96 119 155q-54 65 -54 113t37 81q36 35 94 35q53 0 89 -33q34 -33 34 -80q0 -74 -94 -126q46 -61 84 -109q10 20 23 69l73 -16q-16 -66 -46 -113zM216 337q60 34 60 78 q0 25 -15 40.5t-39 15.5t-40 -15.5t-16 -38t24 -50.5zM187 252q-48 -29 -65 -53.5t-17 -52.5t24 -61q24 -31 68 -31q26 0 55 16.5t47 42.5z" />
<glyph unicode="'" horiz-adv-x="142" d="M45 389l-25 13l23 104v103h89v-83z" />
<glyph unicode="(" horiz-adv-x="284" d="M174 -95q-58 55 -85 107q-59 112 -59 244q0 133 54 234q33 65 90 118l35 -31q-29 -41 -49 -105q-38 -120 -38 -216t32 -196q26 -84 55 -125z" />
<glyph unicode=")" horiz-adv-x="284" d="M110 607q144 -136 144 -351q0 -132 -54 -234q-35 -66 -90 -118l-35 31q27 39 48 103q38 122 38 218q0 138 -59 272q-15 32 -27 49z" />
<glyph unicode="*" horiz-adv-x="253" d="M151 457l-1 -3l70 -59l-57 -40l-35 85h-2l-37 -84l-56 39l72 58l-1 3l-94 9l24 64l78 -46l2 2l-22 88h69l-22 -87l2 -1l80 45l22 -65z" />
<glyph unicode="+" horiz-adv-x="370" d="M228 221v-103h-87v103h-106v71h106v100h87v-100h107v-71h-107z" />
<glyph unicode="," horiz-adv-x="210" d="M55 -123l-25 13l23 104v103h97v-83z" />
<glyph unicode="-" horiz-adv-x="318" d="M30 220v71h238v-71h-238z" />
<glyph unicode="." horiz-adv-x="197" d="M40 0v97h97v-97h-97z" />
<glyph unicode="/" horiz-adv-x="406" d="M109 -43l-64 28l253 569l64 -28z" />
<glyph unicode="0" horiz-adv-x="464" d="M414 268q0 -47 -11 -95.5t-33.5 -87.5t-57 -64t-81 -25t-80.5 25t-57 64q-44 77 -44 183q0 103 44 178q51 84 138 84t138 -84q44 -75 44 -178zM232 457q-97 0 -97 -189q0 -131 47 -180q19 -19 50 -19q55 0 80 69q17 49 17 130q0 189 -97 189z" />
<glyph unicode="1" horiz-adv-x="235" d="M79 0v446l-29 -4v71l101 16q5 1 9.5 -2.5t4.5 -8.5v-518h-86z" />
<glyph unicode="2" horiz-adv-x="388" d="M40 445q60 85 151 85q88 0 128 -48q29 -35 29 -87q0 -64 -65 -152l-127 -172h186v-71h-285v68l150 208q56 78 56 113q0 64 -77 64q-44 0 -85 -56z" />
<glyph unicode="3" horiz-adv-x="392" d="M225 431q-20 22 -55 22t-74 -35l-43 62q21 20 53 35t72 15t70.5 -13t49.5 -33q37 -39 37 -96q0 -74 -64 -107l-23 -5l23 -5q42 -14 61.5 -48t19.5 -70.5t-10.5 -64t-31.5 -48.5q-46 -44 -130 -44q-65 0 -124 38q-13 8 -16 11l43 68q22 -22 52 -33.5t45 -11.5q44 0 63 22 t19 63q0 37 -30 63q-29 24 -62 24h-11v71h11q28 0 51.5 16.5t23.5 49t-20 54.5z" />
<glyph unicode="4" horiz-adv-x="411" d="M316 138v-138h-87v138h-207q-12 0 -12 11v60l157 312h137q12 0 12 -12v-300h65v-71h-65zM223 462l-123 -257h133v257h-10z" />
<glyph unicode="5" horiz-adv-x="392" d="M142 324q38 11 61.5 11t51 -10.5t49.5 -30.5q48 -45 48 -122q0 -71 -43 -120q-49 -56 -134 -56q-48 0 -78 13q-40 18 -57 35l42 68q44 -44 90.5 -44t72.5 30t26 66t-8 54t-21 29q-25 20 -58 20q-56 0 -86 -30l-39 20v250q0 6 4.5 10t10.5 4h264v-71h-196v-126z" />
<glyph unicode="6" horiz-adv-x="412" d="M176 315q20 11 37 11q71 0 115 -44t44 -120t-44 -123t-111 -47t-106 28t-56 69.5t-14 89t21 86.5l119 256h93zM292 157q0 42 -23 67q-24 25 -60 25q-90 0 -90 -87q0 -94 92 -94q36 0 58.5 23.5t22.5 65.5z" />
<glyph unicode="7" horiz-adv-x="389" d="M157 0h-92l198 450h-159v-29h-74v100h318q11 0 11 -12v-59z" />
<glyph unicode="8" horiz-adv-x="423" d="M370 193q8 -20 8 -54.5t-13.5 -63.5t-36.5 -47q-44 -32 -117 -32q-116 0 -153 79q-13 29 -13 63.5t8 54.5t20 35q24 32 53 46q5 2 3.5 5t-3.5 4q-6 3 -18.5 17.5t-21.5 29.5q-22 38 -22 72.5t12.5 59t32.5 39.5q39 29 102 29q101 0 135 -68q13 -25 13 -52.5t-6.5 -45.5 t-15.5 -34q-15 -26 -37 -45q-1 -1 -4 -2.5t-3 -4t9 -7.5t22.5 -16t25.5 -26.5t20 -35.5zM220 312q61 28 61 98q0 17 -19 32q-20 14 -50 14q-70 0 -70 -53q0 -11 6 -28q9 -25 44 -49q13 -9 28 -14zM205 241q-86 -42 -86 -101q0 -35 24 -56.5t55 -23.5q51 -2 79 20 q27 19 27 52q0 79 -99 109z" />
<glyph unicode="9" horiz-adv-x="412" d="M234 203q-27 -8 -35 -8q-72 0 -115.5 44.5t-43.5 120.5t45 123t111 47t105 -28t56 -70t14 -89.5t-21 -86.5l-119 -256h-93zM293 359q0 94 -91 94q-38 0 -60 -24.5t-22 -65.5t23.5 -66t59.5 -25q90 0 90 87z" />
<glyph unicode=":" horiz-adv-x="197" d="M30 343v97h97v-97h-97zM30 0v97h97v-97h-97z" />
<glyph unicode=";" horiz-adv-x="210" d="M43 343v97h97v-97h-97zM45 -123l-25 13l23 104v103h97v-83z" />
<glyph unicode="&#x3c;" horiz-adv-x="357" d="M30 221v69l277 125v-68l-201 -91l201 -92v-68z" />
<glyph unicode="=" horiz-adv-x="328" d="M50 273v62h228v-62h-228zM50 165v63h228v-63h-228z" />
<glyph unicode="&#x3e;" horiz-adv-x="357" d="M50 96v68l200 92l-200 91v68l277 -125v-69z" />
<glyph unicode="?" horiz-adv-x="388" d="M30 445q60 85 151 85q87 0 128 -54q29 -39 29 -84t-19 -73.5t-41.5 -53t-41.5 -46.5t-19 -46h-82q0 30 18.5 56.5t40.5 51t40.5 49.5t18.5 53t-18.5 49t-49.5 21q-53 0 -94 -56zM126 0v97h97v-97h-97z" />
<glyph unicode="@" horiz-adv-x="741" d="M461 328l11 49h71l-51 -239q-11 -50 -11 -56t5.5 -11.5t19 -5.5t48 23.5t57 70t22.5 95.5q4 86 -68 152q-71 66 -179 66q-81 0 -147.5 -38t-103.5 -109t-37 -151q-4 -125 82 -198q81 -69 215 -67q92 0 153.5 30.5t91.5 75.5h73q-64 -113 -204 -153q-51 -14 -113 -12 q-109 -2 -201 48q-88 49 -128 126q-29 66 -29 148t35 161q92 197 316 197q88 0 157.5 -35.5t111.5 -107.5q34 -61 34 -134q0 -101 -73 -182q-66 -72 -141 -72q-53 0 -69 39q-2 5 -3 13q-50 -52 -104 -52q-23 -2 -47 10t-43 33q-43 51 -42 113t30 117t73 86q46 29 79 29 q67 0 109 -59zM284 281q-39 -54 -39 -133q0 -38 21 -63.5t44 -25.5q44 0 85 45q19 23 31.5 58t12.5 75t-22.5 65.5t-50 25.5t-46 -11t-36.5 -36z" />
<glyph unicode="A" horiz-adv-x="487" d="M133 156l-57 -156h-81l200 524h80l214 -524h-86l-61 156h-209zM155 220h164q-12 35 -26 69t-23.5 59.5t-14.5 38t-8.5 22.5t-6 19t-5.5 19q-14 -54 -25 -81z" />
<glyph unicode="B" horiz-adv-x="487" d="M50 0v524h198q83 4 130 -38q40 -34 45 -98q0 -32 -16.5 -61t-48.5 -48q43 -15 66.5 -48.5t23.5 -73t-16 -72t-39 -49.5q-49 -36 -142 -36h-201zM127 307h108q43 0 63 6q50 17 50 66q0 56 -45 68q-24 8 -77 8h-99v-148zM127 68h124q31 0 54 5t44 23.5t21 57.5 q-3 42 -31 64.5t-97 20.5h-115v-171z" />
<glyph unicode="C" horiz-adv-x="527" d="M499 171q-22 -90 -79 -135t-141 -45q-161 0 -219 134q-27 66 -27 141q-4 118 71 196q68 72 177 70q79 0 133.5 -40.5t74.5 -115.5l-75 -18q-17 57 -50.5 82.5t-81 26t-80 -16t-52.5 -44.5q-41 -57 -39 -139q-4 -96 45 -156q46 -56 118 -54q56 0 95 33.5t53 99.5z" />
<glyph unicode="D" horiz-adv-x="527" d="M53 0v524h183q58 0 86 -6q53 -13 84 -40q81 -75 81 -213q0 -125 -61 -195q-17 -21 -36 -34q-54 -36 -146 -36h-191zM130 68h106q86 0 123 37q50 47 50 161q0 78 -25.5 121t-58.5 55.5t-91 12.5h-104v-387z" />
<glyph unicode="E" horiz-adv-x="487" d="M55 0v524h381v-69h-305v-150h285v-69h-285v-168h316v-68h-392z" />
<glyph unicode="F" horiz-adv-x="446" d="M57 0v524h355v-69h-279v-152h242v-69h-242v-234h-76z" />
<glyph unicode="G" horiz-adv-x="568" d="M295 202v69h226v-197q-101 -83 -217 -83q-118 -4 -195 75q-77 78 -73 193q0 77 32 143q32 64 93 99q60 31 143 30t138 -39.5t73 -118.5l-70 -20q-15 58 -50.5 84.5t-83 27.5t-74.5 -7t-47 -22q-35 -25 -55.5 -72t-20.5 -100q-4 -98 53 -154q51 -50 133 -50 q43 0 83.5 16.5t63.5 35.5v90h-152z" />
<glyph unicode="H" horiz-adv-x="527" d="M55 0v524h77v-212h260v212h77v-524h-77v243h-260v-243h-77z" />
<glyph unicode="I" horiz-adv-x="203" d="M64 0v524h76v-524h-76z" />
<glyph unicode="J" horiz-adv-x="365" d="M87 164q3 -60 22 -82t47 -22q55 0 70 41q7 20 7 64v359h76v-356q3 -135 -84 -166q-28 -10 -65 -11q-70 0 -106.5 41t-35.5 122z" />
<glyph unicode="K" horiz-adv-x="487" d="M207 259q-40 -40 -80 -78v-181h-77v524h77v-250l250 250h105l-222 -214q57 -76 113.5 -155t113.5 -155h-98z" />
<glyph unicode="L" horiz-adv-x="406" d="M50 0v524h77v-456h254v-68h-331z" />
<glyph unicode="M" horiz-adv-x="608" d="M478 411l-143 -411h-67l-143 419v-419h-74v524h110l123 -368q7 -24 11.5 -36t6 -17.5t3.5 -9.5q5 14 10.5 31t12.5 38l125 362h99v-524h-74v411z" />
<glyph unicode="N" horiz-adv-x="527" d="M52 0v524h76l266 -398v398h73v-524h-76l-265 397v-397h-74z" />
<glyph unicode="O" horiz-adv-x="568" d="M32 256q0 131 71 204t180 73q110 2 182 -75q71 -77 69 -196q4 -118 -72 -198q-35 -36 -81.5 -55.5t-97.5 -17.5q-107 -4 -183 79q-33 36 -51.5 84.5t-16.5 101.5zM111 254q0 -89 49 -144q50 -53 124.5 -53t123 53t48.5 152q0 93 -48 148q-47 56 -121 56t-125 -48 t-51 -164z" />
<glyph unicode="P" horiz-adv-x="487" d="M53 0v524h198q45 0 90 -7.5t80 -45.5t35 -104t-44 -111q-43 -47 -155 -47h-127v-209h-77zM259 278q118 0 118 90q0 32 -16 54t-37.5 27.5t-66.5 5.5h-127v-177h129z" />
<glyph unicode="Q" horiz-adv-x="568" d="M530 262q0 -127 -75 -203q44 -30 87 -46l-24 -54q-59 22 -112 63q-60 -31 -120.5 -31.5t-107 20t-80.5 57.5q-74 79 -70 194q-2 118 71 196.5t181 74.5q109 2 181 -75q71 -77 69 -196zM295 152q54 -14 101 -49q56 52 56 159q0 93 -48 148q-47 56 -124.5 56t-123.5 -52 q-49 -54 -49 -152q0 -97 49 -152q47 -53 124 -53q35 0 61 11q-27 16 -65 26z" />
<glyph unicode="R" horiz-adv-x="527" d="M55 0v524h232q69 0 97 -11.5t42.5 -24t25.5 -30.5q23 -35 23 -84t-33.5 -87t-102.5 -50q19 -11 40 -30t47 -61l94 -146h-95l-69 110q-43 65 -61 83q-28 29 -52 33q-11 3 -37 3h-76v-229h-75zM130 296h143q67 -2 94.5 22t28.5 60t-25 58.5t-81 22.5h-160v-163z" />
<glyph unicode="S" horiz-adv-x="487" d="M125 271q-75 39 -75 116q-2 62 51 104q54 43 135 41q89 0 141.5 -43.5t55.5 -118.5l-74 -5q-5 50 -34 75t-88 25t-86 -21.5t-27 -50.5t19.5 -45.5t103 -36t112.5 -32.5q90 -41 90 -130q2 -65 -54 -112q-57 -48 -142 -46q-104 0 -162.5 48.5t-60.5 134.5l71 6 q7 -56 44 -88t101 -32t96.5 24.5t32.5 53.5t-15 46.5t-40 27t-95.5 26.5t-99.5 34v-1z" />
<glyph unicode="T" horiz-adv-x="446" d="M184 0v455h-170v69h417v-69h-171v-455h-76z" />
<glyph unicode="U" horiz-adv-x="527" d="M392 524h77v-303q0 -78 -18 -124.5t-66 -76t-123 -29.5q-115 4 -160 55q-49 55 -47 175v303h75v-302q0 -65 9.5 -90t19.5 -36t24 -20v1q32 -17 73 -17q73 0 104.5 34t31.5 128v302z" />
<glyph unicode="V" horiz-adv-x="487" d="M202 0l-203 524h83l135 -378q7 -20 12.5 -35.5t10.5 -33.5q14 46 36 105q24 62 127 342h79l-204 -524h-76z" />
<glyph unicode="W" horiz-adv-x="689" d="M343 439q-15 -55 -123 -439h-76l-138 524h78l79 -341q5 -23 10 -45t9 -43q2 5 2.5 9t7 32t20.5 76q44 154 87 312h89l75 -264q27 -93 37 -159q5 20 10 42t17.5 75t34 139t40.5 167h77l-144 -524h-71l-109 396q-2 5 -2.5 9.5t-4.5 14.5l-4 12q0 2 -1 7z" />
<glyph unicode="X" horiz-adv-x="487" d="M-2 0l202 273q-44 61 -89 125.5t-90 125.5h90l95 -135q30 -41 39 -56q10 17 37 51t54 70.5t53 69.5h83l-184 -248q49 -68 98.5 -138t98.5 -138h-94l-131 186q-2 4 -4.5 7t-5.5 7q-5 9 -10 15q-13 -25 -20 -33l-132 -182h-90z" />
<glyph unicode="Y" horiz-adv-x="487" d="M199 0v221q-49 73 -101.5 152t-100.5 151h91l103 -158q14 -22 26.5 -40t23.5 -40q11 20 24.5 40.5t28.5 43.5l101 154h88l-208 -303v-221h-76z" />
<glyph unicode="Z" horiz-adv-x="446" d="M12 0v69l266 332q32 39 46 54h-282v69h377v-67l-290 -358l-27 -31h326v-68h-416z" />
<glyph unicode="[" horiz-adv-x="306" d="M82 -95q-12 0 -12 12v679q0 12 12 12h154v-55h-79v-593h79v-55h-154z" />
<glyph unicode="\" horiz-adv-x="276" d="M264 0h-71l-193 583h78z" />
<glyph unicode="]" horiz-adv-x="306" d="M232.5 -91.5q-3.5 -3.5 -8.5 -3.5h-154v55h79v593h-79v55h154q5 0 8.5 -3.5t3.5 -8.5v-679q0 -5 -3.5 -8.5z" />
<glyph unicode="^" horiz-adv-x="385" d="M375 213h-58l-123 277l-123 -277h-58l154 342h53z" />
<glyph unicode="_" horiz-adv-x="504" d="M504 -126h-504v55h504v-55z" />
<glyph unicode="`" horiz-adv-x="333" d="M58 679h109l51 -169h-17z" />
<glyph unicode="a" horiz-adv-x="406" d="M289 42q-64 -51 -131 -51t-101 31.5t-34 78t28 73t66 39.5q28 6 59 10q59 7 107 20v13q0 72 -86 72q-44 0 -64 -16t-30 -56l-70 11q14 62 54.5 91.5t118.5 29.5q103 0 132 -50q9 -16 12.5 -33.5t3.5 -60.5v-85q0 -84 4.5 -108t18.5 -51h-76q-9 18 -12 42zM283 185 q-33 -12 -79.5 -18.5t-62.5 -11.5t-25 -13q-13 -11 -17 -40q0 -23 18.5 -38t52.5 -15t61.5 15.5t39.5 39t12 63.5v18z" />
<glyph unicode="b" horiz-adv-x="406" d="M111 0h-67v522h72v-177q40 43 97 43q73 0 118 -54q44 -54 44 -144.5t-47.5 -144.5t-114.5 -54t-102 47v-38zM128 97q28 -45 72.5 -45t73 35t28.5 105t-27 103t-67 33t-68.5 -34.5t-28.5 -99.5t17 -97z" />
<glyph unicode="c" horiz-adv-x="365" d="M284 252q-18 76 -82 76q-47 0 -75.5 -32.5t-28.5 -106t27.5 -105.5t68.5 -32q81 0 95 93l69 -8q-10 -69 -53 -107.5t-113.5 -38.5t-118.5 50.5t-48 147.5q-4 90 47 147q49 54 127 52q63 0 102.5 -32t50.5 -93z" />
<glyph unicode="d" horiz-adv-x="406" d="M183 388q62 0 99 -43v177h70v-522h-66v38q-35 -47 -100 -47q-72 0 -118 57t-46 142q-2 86 43.5 143t117.5 55zM121.5 295q-26.5 -33 -26.5 -104t28.5 -105t68.5 -34t68 32.5t28 103.5t-28.5 105.5t-70 34.5t-68 -33z" />
<glyph unicode="e" horiz-adv-x="406" d="M374 120q-35 -129 -169 -129q-84 0 -132.5 51t-48.5 146.5t49.5 147.5t128.5 52q78 0 124 -52q49 -54 49 -145v-11q0 -5 -1 -10h-277q4 -58 33.5 -88t69 -30t63 17.5t37.5 58.5zM300 230q-4 41 -22 63q-30 35 -74 35t-71.5 -26t-32.5 -72h200z" />
<glyph unicode="f" horiz-adv-x="203" d="M60 0v322h-56v58h56v36q0 38 8 60q20 53 98 53q28 0 64 -6l-12 -63q-23 4 -44.5 4t-32.5 -11.5t-11 -42.5v-30h72v-58h-72v-322h-70z" />
<glyph unicode="g" horiz-adv-x="406" d="M103 -32q6 -31 20 -42h-1q23 -17 62 -17t63 18.5t34 44.5q4 18 4 70q-39 -42 -100 -42q-76 0 -120.5 55.5t-44.5 136.5q0 85 45 140q47 58 121 56q65 0 104 -45v37h66v-326q0 -86 -17 -123t-58 -61q-40 -20 -103 -20t-104.5 31t-40.5 97zM122 295q-28 -33 -28 -101.5 t27.5 -101t69.5 -32.5t70 32.5t28 100.5t-28.5 101.5t-69.5 33.5t-69 -33z" />
<glyph unicode="h" horiz-adv-x="406" d="M285 240q0 86 -75 86q-42 -3 -69.5 -30t-24.5 -89v-207h-71v522h71v-178q44 44 108 44q69 -4 100 -36q33 -34 31 -112v-240h-70v240z" />
<glyph unicode="i" horiz-adv-x="162" d="M44 441v81h71v-81h-71zM44 0v380h71v-380h-71z" />
<glyph unicode="j" horiz-adv-x="162" d="M43 440v82h71v-82h-71zM-23 -82q23 -5 36.5 -5t21.5 10.5t8 61.5v395h71v-396q0 -70 -22 -102t-75 -32q-27 0 -55 7z" />
<glyph unicode="k" horiz-adv-x="365" d="M116 236l143 144h94l-147 -143q39 -58 79 -118.5t79 -118.5h-86l-121 188l-41 -39v-149h-71v522h71v-286z" />
<glyph unicode="l" horiz-adv-x="162" d="M43 0v522h71v-522h-71z" />
<glyph unicode="m" horiz-adv-x="608" d="M439 388q119 0 119 -129v-259h-71v239q3 68 -34 80q-12 4 -28 6q-38 0 -62.5 -25t-24.5 -80v-220h-71v246q0 40 -14.5 59.5t-47.5 19.5q-44 -4 -65 -29q-25 -31 -23 -100v-196h-71v380h65v-44q37 52 112.5 52t102.5 -61q46 61 113 61z" />
<glyph unicode="n" horiz-adv-x="406" d="M45 0v380h65v-45q42 53 114 53q54 0 86 -28q41 -34 44 -90q1 -16 1 -37v-233h-71v230q1 53 -17.5 72.5t-55.5 22.5q-37 0 -67 -24q-28 -26 -28 -94v-207h-71z" />
<glyph unicode="o" horiz-adv-x="406" d="M70.5 42q-49.5 51 -49.5 152t58 152q51 42 120 42q79 0 129 -52q50 -51 50 -141q3 -150 -108 -190q-33 -12 -71 -14q-79 0 -128.5 51zM95 190q0 -69 29 -103.5t75.5 -34.5t76 34t29.5 103t-30 104t-76 35t-75 -34.5t-29 -103.5z" />
<glyph unicode="p" horiz-adv-x="406" d="M210 -9q-59 0 -94 41v-174h-71v522h66v-41q40 49 103 49q73 0 118 -56q44 -54 44 -139q4 -84 -48 -145q-49 -59 -118 -57zM140 294q-29 -37 -29 -106.5t27.5 -102.5t67.5 -33t68.5 34.5t28.5 105.5t-27.5 105t-67 34t-68.5 -37z" />
<glyph unicode="q" horiz-adv-x="406" d="M183 388q63 0 106 -50v42h63v-522h-70v174q-39 -41 -100.5 -41t-110.5 54q-48 55 -48 149q-2 85 45 141q45 55 115 53zM122.5 297.5q-27.5 -33.5 -27.5 -104.5t29 -106t69 -35t68 32.5t28 103t-29.5 107t-69.5 36.5t-67.5 -33.5z" />
<glyph unicode="r" horiz-adv-x="243" d="M182 314q-67 0 -67 -116v-198h-71v380h64v-45q35 53 72 53t75 -24l-25 -63q-23 13 -48 13z" />
<glyph unicode="s" horiz-adv-x="365" d="M254 266q-11 62 -79 62q-42 0 -59 -13t-17 -27t5.5 -22.5t18.5 -14t29 -10t20.5 -5.5t24.5 -6q67 -19 79 -25q61 -32 61 -92q0 -51 -43 -87q-45 -35 -116 -35q-137 0 -159 127l70 12q11 -78 93 -78q42 0 62 16t20 37t-17 33q-6 2 -23 8t-46 13q-71 17 -94 29t-38.5 36.5 t-15.5 51.5q0 78 86 104q26 8 55 8q73 0 108.5 -28t44.5 -83z" />
<glyph unicode="t" horiz-adv-x="203" d="M189 66l11 -64q-29 -7 -59 -7q-59 0 -77 41q-8 19 -8 77v209h-46v58h46v90l70 43v-133h64v-58h-64v-213q0 -39 14 -43q4 -2 15.5 -3t33.5 3z" />
<glyph unicode="u" horiz-adv-x="406" d="M289 0v46q-44 -55 -114 -55q-52 2 -86 28.5t-42 65.5q-3 19 -3 60v235h71v-210q0 -50 4.5 -69.5t22.5 -33t45 -13.5q50 5 71 29q28 30 24 94v203h70v-380h-63z" />
<glyph unicode="v" horiz-adv-x="365" d="M180 94l105 286h72l-143 -380h-65l-144 380h75l81 -226q10 -26 19 -60z" />
<glyph unicode="w" horiz-adv-x="527" d="M259 273l-72 -273h-72l-117 380h75l78 -285q7 34 15 64l60 221h71l56 -219q5 -17 7.5 -27t7.5 -28l17 56q16 53 33.5 109t31.5 109h70l-119 -380h-71l-61 226q-3 15 -4.5 23t-5.5 24z" />
<glyph unicode="x" horiz-adv-x="365" d="M180 145l-95 -145h-85l139 197q-32 45 -65 92t-65 91h89l58 -89q5 -8 8.5 -14.5t7.5 -12.5h1q2 -5 5 -11l90 127h84l-131 -180q35 -48 70.5 -99.5t70.5 -100.5h-86l-78 118q-5 7 -9 14t-9 13z" />
<glyph unicode="y" horiz-adv-x="365" d="M134 -40l12 32q2 5 4 11q-34 91 -71 188.5t-71 188.5h76l79 -219q10 -26 22 -70q9 31 22 69l80 220h72l-142 -384q-24 -62 -39 -90q-33 -56 -91 -56q-22 0 -45 8l-8 68q28 -8 44 -8q43 0 56 42z" />
<glyph unicode="z" horiz-adv-x="365" d="M104 60q32 2 69 2h176v-62h-337v57l231 265q-34 -2 -63 -2h-155v60h313v-48z" />
<glyph unicode="{" horiz-adv-x="331" d="M86 451q0 157 141 157h34v-51h-12q-41 0 -61 -35q-15 -27 -15 -71v-82q0 -73 -64 -113q64 -38 64 -113v-81q0 -69 39 -96q15 -10 37 -10h12v-51h-34q-141 0 -141 157v94q0 30 -19 47.5t-52 17.5h-15v71h1q85 2 85 65v94z" />
<glyph unicode="|" horiz-adv-x="278" d="M100 -153v827h78v-827h-78z" />
<glyph unicode="}" horiz-adv-x="331" d="M245 357q0 -63 85 -65h1v-71h-15q-33 0 -52 -17.5t-19 -47.5v-94q0 -157 -141 -157h-34v51h12q40 0 61 35q16 27 16 71v81q0 75 63 113q-64 40 -64 113l1 82q0 69 -40 96q-15 10 -37 10h-12v51h34q141 0 141 -157v-94z" />
<glyph unicode="~" horiz-adv-x="317" d="M246 213.5q-22 -17.5 -52 -12.5q-18 3 -36 19t-28.5 23.5t-22 9.5t-21 -1t-23.5 -26l-33 18q17 32 38 49t45.5 12.5t35 -12.5t17.5 -14t14 -11q16 -13 27 -15t24.5 8t21.5 20l34 -21q-19 -29 -41 -46.5z" />
<glyph unicode="&#xa1;" horiz-adv-x="344" d="M140 433q0 16 14 16h38q5 0 9 -5t5 -10l19 -415q1 -13 -14.5 -23.5t-37.5 -10.5t-38 10.5t-15 25.5zM211.5 619.5q16.5 -16.5 16.5 -40t-16.5 -39.5t-39.5 -16t-39 16t-16 40t15.5 40t39 16t40 -16.5z" />
<glyph unicode="&#xa2;" horiz-adv-x="544" d="M261 413q-107 -16 -107 -191q0 -75 15.5 -111.5t36.5 -56t55 -23.5v382zM453 104q-38 -104 -149 -115v-92q0 -8 -6 -14.5t-15 -6.5t-15.5 6.5t-6.5 14.5v91q-93 6 -145 74q-51 64 -51 160q0 99 50 161q53 66 146 72v89q0 9 6 15.5t15 6.5t15.5 -5.5t6.5 -16.5v-89 q62 -4 127 -32q16 -8 16 -22v-83q0 -5 -4.5 -10t-10.5 -5h-16q-11 0 -13.5 6t-3.5 9q-9 42 -31 66t-64 29v-382q69 9 92 86q1 4 6.5 10t14.5 6h16q16 0 19 -11t1 -18z" />
<glyph unicode="&#xa3;" horiz-adv-x="398" d="M378 65q13 0 13 -7t-3 -14l-15 -34q-4 -10 -15 -10h-317q-8 0 -10.5 2.5t-2.5 11.5v38q0 8 2.5 10.5t10.5 2.5h51q5 21 10 44t5 55.5t-2 50.5h-63q-9 0 -11.5 2.5t-2.5 11.5v38q0 8 2.5 10.5t11.5 2.5h50q-9 34 -9 69t11 63t33 48q48 45 136 45q43 0 74 -11 q52 -19 52 -34q0 -3 -3 -9l-19 -38q-4 -6 -8 -6t-10.5 5t-18.5 10q-34 16 -82 16t-68.5 -20.5t-20.5 -63t8 -74.5h113q9 0 11.5 -2.5t2.5 -10.5v-38q0 -9 -3 -11.5t-11 -2.5h-100q3 -21 3 -52t-5.5 -54.5t-9.5 -43.5h210z" />
<glyph unicode="&#xa4;" horiz-adv-x="544" d="M385 268q0 49 -33 80q-33 32 -80.5 32t-78.5 -32.5t-31 -80t31 -79.5t79 -32q47 0 80 32q33 31 33 80zM417 373q34 -47 34 -104.5t-34 -106.5l67 -67q8 -8 8.5 -19.5t-7.5 -19.5t-19.5 -8t-19.5 8l-68 68q-47 -34 -105.5 -34t-103.5 35l-69 -69q-8 -8 -19 -8t-19 8 t-8.5 19t8.5 20l68 68q-34 49 -34 105q0 57 34 104l-69 69q-8 8 -8 19.5t8 19.5t19 8t19 -8l69 -69q49 34 107 34t103 -34l69 69q8 8 19 8t19 -8t8 -19.5t-8 -19.5z" />
<glyph unicode="&#xa5;" horiz-adv-x="544" d="M529.5 616.5q7.5 -6.5 7.5 -16t-7 -15.5t-16 -6h-27l-117 -207h79q11 0 17.5 -6t6.5 -15.5t-7 -16t-16 -6.5h-106l-31 -53v-33h136q11 0 17.5 -6t6.5 -15.5t-7 -16t-16 -6.5h-137v-153h47q9 0 16 -6.5t7 -16t-7.5 -16t-15.5 -6.5h-178q-9 0 -15.5 6t-6.5 15.5t7 16.5 t15 7h48v153h-136q-9 0 -16 6t-7 15.5t7.5 16t15.5 6.5h136v27l-34 59h-102q-9 0 -16 6t-7 15.5t7.5 16t15.5 6.5h76l-119 207h-25q-10 0 -17 6t-7 15.5t7 16t16 6.5h167q9 0 16 -6t7 -15.5t-7.5 -16t-15.5 -6.5h-41l143 -252l142 252h-38q-8 0 -15.5 6.5t-7.5 16t7 15.5 t16 6h116q8 0 15.5 -6.5z" />
<glyph unicode="&#xa6;" horiz-adv-x="288" d="M180 -120q0 -11 -10 -19.5t-25.5 -8.5t-26 8.5t-10.5 19.5v263q0 11 10 19.5t25 8.5t26 -7.5t11 -20.5v-263zM180 308q0 -11 -10 -19.5t-25.5 -8.5t-26 8.5t-10.5 19.5v263q0 11 10 19t25 8t26 -7t11 -20v-263z" />
<glyph unicode="&#xa7;" horiz-adv-x="427" d="M272 167q48 32 48 80q0 41 -62 87q-26 18 -53.5 32t-45.5 24q-23 -14 -38 -31t-15 -41.5t19.5 -46.5t46.5 -42q43 -32 100 -62zM133 408q-67 40 -67 106q0 60 48 92q42 29 104 29q61 0 113 -18q3 -2 9 -6.5t6 -14.5v-54q0 -5 -4.5 -10t-9.5 -5h-10q-9 0 -12 6.5t-4 9.5 q-6 26 -29.5 37.5t-54.5 11.5t-58 -17.5t-27 -57.5q0 -22 18.5 -40t46.5 -35.5t61 -35t61 -38.5q65 -50 65 -108q0 -46 -26 -70.5t-66 -40.5q64 -40 64 -110q0 -61 -51 -93q-42 -28 -107 -28q-63 0 -118 17q-19 8 -19 21v57q0 5 4.5 10.5t9.5 5.5h12q9 0 11.5 -7.5 t3.5 -12.5q13 -47 89 -47q63 0 86 42q8 14 8 36.5t-18.5 42t-46.5 37t-61 35t-61 37.5q-65 48 -65 108q0 45 27 71t68 37z" />
<glyph unicode="&#xa8;" horiz-adv-x="427" d="M166 641q14 -14 14 -35.5t-13 -34.5t-34.5 -13t-35.5 14t-14 34t14 34.5t34.5 14.5t34.5 -14zM345 606q0 -20 -14 -34t-35.5 -14t-35 13t-13.5 34.5t14.5 35.5t34.5 14t34.5 -14.5t14.5 -34.5z" />
<glyph unicode="&#xa9;" horiz-adv-x="556" d="M384 130q-39 -39 -95 -39q-55 0 -95 38q-41 40 -41 96t42 96q40 38 94 38q56 0 95 -39l-26 -33q-9 8 -26 19.5t-38 11.5t-37.5 -6t-30.5 -18q-30 -27 -30 -69q0 -44 30 -69q28 -24 60 -24t47.5 11t24.5 19zM478 221q0 82 -59 141t-141 59t-141 -59t-59 -141t59 -141 t141 -59t141 59t59 141zM513 220q0 -48 -18.5 -90.5t-50.5 -74.5q-69 -69 -166 -69t-166 69t-69 166t69 166t166 69t166 -69t69 -167z" />
<glyph unicode="&#xaa;" horiz-adv-x="407" d="M278 479h-76q-40 0 -63.5 -15.5t-23.5 -52.5t22 -55t59.5 -18t59.5 20.5t22 54.5v66zM192 635q146 0 146 -125v-163h27q8 0 13 -4.5t5 -11.5q0 -15 -18 -15h-69q-18 0 -18 15v18q-37 -42 -97.5 -42t-96 25.5t-35.5 72t23.5 68t58.5 29.5t75 8h72v22q0 38 -25 56t-60 18 t-55.5 -11t-28.5 -37l-3 -6q-2 -4 -8 -4h-11q-6 0 -8.5 3.5t-2.5 6.5v44q0 14 62 28q24 5 54 5z" />
<glyph unicode="&#xab;" horiz-adv-x="523" d="M267 90q0 -14 -15 -14q-9 0 -17 8l-162 143q-7 3 -7 15v17q0 13 7 16l162 143q11 8 17 8q15 0 15 -15q0 -9 -5 -16l-124 -144l124 -145q5 -6 5 -16zM448 90q0 -14 -15 -14q-9 0 -17 8l-161 143q-8 4 -8 15v17q0 12 8 16l161 143q11 8 17 8q15 0 15 -15q0 -8 -4 -16 l-125 -144l125 -145q4 -8 4 -16z" />
<glyph unicode="&#xac;" horiz-adv-x="716" d="M617 125q-9 -10 -23 -10t-23.5 10.5t-9.5 23.5l-1 146h-437q-14 0 -23.5 9t-9.5 23t10 23.5t23 9.5h469q14 0 24 -8.5t10 -22.5v-180q0 -14 -9 -24z" />
<glyph unicode="&#xae;" horiz-adv-x="855" d="M434 327q73 0 73 65.5t-73 65.5h-73v-131h73zM564 393q0 -69 -85 -80q34 -8 52 -43l54 -100h21q13 0 13 -12q0 -5 -4 -8.5t-9 -3.5h-52q-11 0 -16 8l-53 99q-13 23 -25.5 36t-43.5 13h-55v-132h33q13 0 13 -12q0 -5 -4 -8.5t-9 -3.5h-111q-14 0 -14 12q0 5 4.5 8.5 t9.5 3.5h27v288h-27q-6 0 -10 3.5t-4 8.5t4.5 9t9.5 4h168q48 0 80.5 -21t32.5 -69zM694 310q0 55 -21 104t-57 85q-78 78 -189 78t-188 -79q-78 -79 -78 -188t78 -188q77 -79 188 -79t189 78t78 189zM737 310q0 -64 -24.5 -120.5t-66.5 -98.5t-98.5 -66.5t-120.5 -24.5 t-120.5 24.5t-98.5 66.5t-66 98.5t-24 120.5t24 120.5t66 98.5t98.5 66.5t120.5 24.5t120.5 -24.5t98.5 -66.5t66.5 -98.5t24.5 -120.5z" />
<glyph unicode="&#xaf;" horiz-adv-x="1000" />
<glyph unicode="&#xb0;" horiz-adv-x="348" d="M256 395q0 34 -24 58t-58 24t-58 -23.5t-24 -58t24 -58t58 -23.5t58 23.5t24 57.5zM313 395q0 -58 -41 -97q-42 -41 -98 -41t-98 41q-41 39 -41 97q0 59 41 99q42 40 98 40t98 -40q41 -40 41 -99z" />
<glyph unicode="&#xb1;" horiz-adv-x="716" d="M616.5 59.5q10.5 -9.5 10.5 -24t-9.5 -25t-25.5 -10.5l-466 -1q-14 0 -24.5 10t-10.5 24.5t10.5 25t24.5 10.5h466q14 0 24.5 -9.5zM616.5 362.5q10.5 -9.5 10.5 -24t-9.5 -25t-25.5 -10.5h-199v-126q0 -14 -10 -24.5t-24.5 -10.5t-25 10.5t-10.5 24.5v126h-197 q-14 0 -24.5 9.5t-10.5 24.5t10.5 25t24.5 10h197v129q0 14 10 24.5t24.5 10.5t25 -9.5t10.5 -25.5v-129h199q14 0 24.5 -9.5z" />
<glyph unicode="&#xb2;" horiz-adv-x="343" d="M259 347q0 14 15 14q6 0 10.5 -4t4.5 -9v-54q0 -7 -4.5 -11t-10.5 -4h-224q-8 0 -10 2.5t-2 7.5v12q0 9 9 17l110 98q25 23 46 49.5t21 61.5t-20 55.5t-52 20.5q-62 0 -77 -49q-2 -3 -5.5 -8t-10.5 -5q-16 0 -16 15v40q0 11 10 16q50 22 104 22q83 0 118 -54 q12 -18 12 -40t-9.5 -40.5t-23 -35.5t-29.5 -31.5t-28 -26.5l-99 -91h161v32z" />
<glyph unicode="&#xb3;" horiz-adv-x="343" d="M220 545q0 58 -63.5 58t-73.5 -42q0 -2 -4 -6.5t-11 -4.5q-16 0 -16 11v39q0 10 15 18q56 17 86.5 17t52 -4t38.5 -13q39 -21 39 -70q0 -32 -26 -54q-22 -18 -58 -25q43 -5 71.5 -28t28.5 -70q0 -54 -45 -78q-38 -20 -94 -20t-105 18q-13 7 -13 16v46q0 6 4.5 10t11.5 4 q11 0 15 -12q9 -52 79 -52q35 0 59 16.5t24 47.5t-7 46.5t-19 24.5q-18 13 -65 15q-17 0 -17 15q2 16 15 16q78 0 78 61z" />
<glyph unicode="&#xb4;" horiz-adv-x="427" d="M220 536q-10 -10 -26.5 -10t-16.5 15q0 9 13 25l75 108q9 9 19 9h33q18 0 18 -10q0 -11 -7 -18z" />
<glyph unicode="&#xb5;" horiz-adv-x="556" d="M328 15q-30 -27 -70.5 -27t-81.5 28v-149h40q9 0 15.5 -6t6.5 -15.5t-7 -16.5t-15 -7h-159q-9 0 -16 6.5t-7 16t7.5 16t15.5 6.5h41v532h-37q-10 0 -16.5 6t-6.5 15.5t7 16.5t16 7h92q9 0 16 -6.5t7 -15.5v-237q0 -65 10.5 -90.5t28.5 -38t50.5 -12.5t53.5 13.5t33 35.5 q23 40 23 104v202h-34q-9 0 -16 6t-7 15.5t7.5 16.5t15.5 7h88q10 0 16.5 -6.5t6.5 -15.5v-377h41q9 0 16 -6.5t7 -16t-7.5 -16t-15.5 -6.5h-95q-9 0 -16 6t-7 16v56q-17 -36 -47 -63z" />
<glyph unicode="&#xb6;" horiz-adv-x="544" d="M466 623q23 0 23 -23q0 -9 -6.5 -15.5t-15.5 -6.5l-28 1l-1 -642q0 -10 -6 -15t-14 -5q-23 0 -23 21v641h-97l1 -641q0 -10 -6.5 -15.5t-15.5 -5.5q-23 0 -23 21v333q-131 10 -174 101q-14 32 -14 75.5t15.5 76.5t42.5 55q54 44 140 44h202z" />
<glyph unicode="&#xb7;" horiz-adv-x="272" d="M174.5 336q16.5 -16 16.5 -39.5t-16.5 -39.5t-39.5 -16t-39.5 15.5t-16.5 40t16 40t39.5 15.5t40 -16z" />
<glyph unicode="&#xb8;" horiz-adv-x="427" d="M185 -114q53 3 51 41q0 15 -10 28q-18 25 -18 32q0 6 5 9.5t16.5 3.5t26.5 -16q37 -39 37 -78q0 -72 -100 -72q-73 0 -73 32q0 13 7.5 17.5t18.5 5.5z" />
<glyph unicode="&#xb9;" horiz-adv-x="343" d="M258 314q19 0 19 -17q0 -8 -5 -13t-13 -5h-168q-8 0 -13 5t-5 12.5t5.5 13t12.5 5.5l54 -1v265l-60 -33q-7 -4 -15.5 0.5t-8.5 12.5q0 14 11 20l76 41q5 1 12 4t12 3h15q18 0 18 -19v-295z" />
<glyph unicode="&#xba;" horiz-adv-x="402" d="M200 339q90 0 90 132t-90 132q-50 0 -72 -44q-16 -33 -16 -88q0 -88 44 -119q17 -13 44 -13zM318.5 590q43.5 -45 43.5 -119.5t-43.5 -118.5t-118.5 -44t-118 44t-43 118.5t43.5 119.5t118 45t118 -45z" />
<glyph unicode="&#xbb;" horiz-adv-x="523" d="M276 242q0 -8 -7 -15l-162 -143q-8 -8 -17 -8q-15 0 -15 14q0 10 5 16l124 145l-124 144q-5 7 -5 16q0 15 15 15q6 0 17 -8l162 -143q7 -7 7 -16v-17zM458 242q0 -11 -8 -15l-161 -143q-8 -8 -17 -8q-16 0 -16 14q0 10 5 16l125 145l-125 144q-5 7 -5 16q0 15 16 15 q6 0 17 -8l161 -143q8 -4 8 -16v-17z" />
<glyph unicode="&#xbc;" horiz-adv-x="834" d="M123 -28l538 756h76l-537 -756h-77zM162 358v270q-48 -38 -110 -55v60q52 17 100 63q16 14 28 29h52v-367h-70zM698 -15v75h-187v60l198 232h60v-239h50v-53h-50v-75h-71zM698 113v128l-112 -128h112z" />
<glyph unicode="&#xbd;" horiz-adv-x="834" d="M111 -28l538 756h77l-538 -756h-77zM162 358v270q-48 -38 -110 -55v60q52 17 100 63q16 14 28 29h52v-367h-70zM512 -15q3 26 24 55q30 44 100 93q70 51 86 68t16 40t-17 37.5t-50 14.5t-49 -11t-26 -44l-74 8q15 54 49.5 80t105 26t104 -29t33.5 -71t-25.5 -74t-85 -75 t-75.5 -59h188v-59h-304z" />
<glyph unicode="&#xbe;" horiz-adv-x="834" d="M123 -28l538 756h76l-537 -756h-77zM231 555q84 -21 84 -93q0 -46 -39 -79q-39 -34 -108 -34q-131 0 -152 105l71 7q11 -31 26 -40q21 -15 52.5 -15t52.5 19t21 46q0 54 -76 54l-28 -2l11 54q39 0 57.5 14.5t18.5 34t-15 32t-43 12.5t-43.5 -10.5t-26.5 -38.5l-70 11 q20 52 50.5 72.5t95 20.5t96.5 -26.5t32 -59.5q0 -66 -67 -84zM698 -15v75h-187v60l197 232h61v-239h50v-53h-50v-75h-71zM698 113v128l-112 -128h112z" />
<glyph unicode="&#xbf;" horiz-adv-x="459" d="M417 41q0 -13 -14 -20q-80 -32 -147 -32q-82 0 -137 39q-61 44 -61 126t54 134q48 46 132 63v90q0 4 3.5 10.5t11.5 6.5h22q6 0 10.5 -5t4.5 -10v-106q0 -8 -5.5 -13.5t-9.5 -6.5q-59 -18 -97 -57.5t-38 -100.5t28.5 -95t83 -34t79 26t36.5 64q2 4 4.5 10t11.5 6h14 q5 0 9.5 -5t4.5 -10v-80zM309.5 620.5q15.5 -15.5 15.5 -40t-16.5 -40.5t-39.5 -16t-39 16t-16 39.5t15.5 40t40 16.5t40 -15.5z" />
<glyph unicode="&#xc0;" horiz-adv-x="617" d="M286 522l-115 -296h229zM610 38q7 -7 7 -16.5t-7 -15.5t-16 -6h-163q-9 0 -16 6t-7 15.5t7 16.5t16 7h37l-52 136h-262l-52 -136h36q8 0 15.5 -7t7.5 -16.5t-7 -15.5t-16 -6h-110q-10 0 -16.5 6t-6.5 15.5t7 16.5t16 7h21l216 561q2 6 9 11.5t13 5.5h40q14 0 22 -16 l215 -562h30q9 0 16 -7zM342 697q0 -15 -17 -15t-27 10l-74 73q-7 7 -7 17.5t18 10.5h32q10 0 19 -9l43 -62q13 -16 13 -25z" />
<glyph unicode="&#xc1;" horiz-adv-x="617" d="M286 522l-115 -296h229zM610 38q7 -7 7 -16.5t-7 -15.5t-16 -6h-163q-9 0 -16 6t-7 15.5t7 16.5t16 7h37l-52 136h-262l-52 -136h36q8 0 15.5 -7t7.5 -16.5t-7 -15.5t-16 -6h-110q-10 0 -16.5 6t-6.5 15.5t7 16.5t16 7h21l216 561q2 6 9 11.5t13 5.5h40q14 0 22 -16 l215 -562h30q9 0 16 -7zM379 793q18 0 18 -10t-8 -18l-74 -73q-10 -10 -26.5 -10t-16.5 15q0 9 13 25l43 62q9 9 19 9h32z" />
<glyph unicode="&#xc2;" horiz-adv-x="617" d="M286 522l-115 -296h229zM610 38q7 -7 7 -16.5t-7 -15.5t-16 -6h-163q-9 0 -16 6t-7 15.5t7 16.5t16 7h37l-52 136h-262l-52 -136h36q8 0 15.5 -7t7.5 -16.5t-7 -15.5t-16 -6h-110q-10 0 -16.5 6t-6.5 15.5t7 16.5t16 7h21l216 561q2 6 9 11.5t13 5.5h40q14 0 22 -16 l215 -562h30q9 0 16 -7zM420 697q0 -15 -15 -15q-12 0 -24 10l-72 58l-73 -58q-13 -10 -24 -10q-15 0 -15 15q0 10 13 25l53 62q9 9 19 9h52q10 0 19 -9l54 -62q13 -16 13 -25z" />
<glyph unicode="&#xc3;" horiz-adv-x="617" d="M286 522l-115 -296h229zM610 38q7 -7 7 -16.5t-7 -15.5t-16 -6h-163q-9 0 -16 6t-7 15.5t7 16.5t16 7h37l-52 136h-262l-52 -136h36q8 0 15.5 -7t7.5 -16.5t-7 -15.5t-16 -6h-110q-10 0 -16.5 6t-6.5 15.5t7 16.5t16 7h21l216 561q2 6 9 11.5t13 5.5h40q14 0 22 -16 l215 -562h30q9 0 16 -7zM438 781.5q6 -6.5 6 -18t-6 -23.5t-16 -22q-25 -22 -50.5 -22t-41.5 6.5t-30 15.5q-34 21 -49 21t-25.5 -9.5t-11.5 -19.5q-3 -14 -21 -14q-8 0 -14 6.5t-6 17.5q0 23 22 45q23 23 48 23t41 -6.5t30 -15.5q35 -21 52.5 -21t27 9t10.5 18q3 16 20 16 q8 0 14 -6.5z" />
<glyph unicode="&#xc4;" horiz-adv-x="617" d="M286 522l-115 -296h229zM610 38q7 -7 7 -16.5t-7 -15.5t-16 -6h-163q-9 0 -16 6t-7 15.5t7 16.5t16 7h37l-52 136h-262l-52 -136h36q8 0 15.5 -7t7.5 -16.5t-7 -15.5t-16 -6h-110q-10 0 -16.5 6t-6.5 15.5t7 16.5t16 7h21l216 561q2 6 9 11.5t13 5.5h40q14 0 22 -16 l215 -562h30q9 0 16 -7zM275 738q0 -20 -13.5 -34t-34.5 -14t-34.5 14t-13.5 34t14 34.5t34 14.5t34 -14.5t14 -34.5zM423.5 772.5q14.5 -14.5 14.5 -35t-13.5 -34t-34.5 -13.5t-35 14t-14 34t14 34.5t34 14.5t34.5 -14.5z" />
<glyph unicode="&#xc5;" horiz-adv-x="617" d="M286 522l-115 -296h228zM370 679q0 27 -18.5 45t-45 18t-44.5 -18t-18 -45t18 -45t45 -18t45 18t18 45zM610 38q7 -7 7 -16.5t-7 -15.5t-16 -6h-163q-9 0 -16 6t-7 15.5t7 16.5t16 7h37l-52 136h-262l-52 -136h36q8 0 15.5 -7t7.5 -16.5t-7 -15.5t-16 -6h-110 q-10 0 -16.5 6t-6.5 15.5t7 16.5t16 7h21l205 533q-61 32 -61 101q0 47 33.5 80.5t80.5 33.5q46 0 81 -33q34 -32 34 -73q0 -77 -63 -109l205 -533h30q9 0 16 -7z" />
<glyph unicode="&#xc6;" horiz-adv-x="856" d="M382 579h-42l-162 -353h204v353zM811 20q0 -11 -8 -15.5t-12 -4.5h-456q-9 0 -15.5 6t-6.5 15.5t7 16.5t15 7h47v136h-224l-64 -136h36q9 0 16 -6.5t7 -16t-7 -16t-16 -6.5h-112q-9 0 -16 6t-7 15.5t7.5 16.5t15.5 7h22l246 534h-57q-9 0 -16 6t-7 15.5t7.5 16t15.5 6.5 h553q17 0 20 -6t3 -16v-86q0 -11 -8.5 -15.5t-11.5 -4.5h-11q-4 0 -12.5 4t-8.5 17v56h-288v-209h207v39q0 13 8.5 17t12.5 4h10q4 0 12 -4.5t8 -15.5v-145q0 -11 -8 -15.5t-12 -4.5h-10q-4 0 -12.5 4t-8.5 17v54h-207v-262h295v56q0 13 8.5 17t12.5 4h10q4 0 12 -4.5 t8 -15.5v-88z" />
<glyph unicode="&#xc7;" horiz-adv-x="655" d="M586 458q0 -21 -17 -21h-16q-8 0 -12.5 6t-5.5 11q-18 72 -65 104t-116.5 32t-108.5 -24.5t-62 -63.5q-40 -69 -40 -191q0 -190 102 -255q39 -24 101 -24q131 0 175 117q6 16 21 16h31q12 0 17.5 -10.5t3.5 -16.5q-56 -132 -204 -148q43 -43 43 -84q0 -72 -101 -72 q-72 0 -72 32q0 13 7.5 17.5t18.5 5.5l39 -3q51 3 51 41q0 22 -28 61h-2q-134 0 -218 95q-80 90 -80 228q0 143 80 231q84 93 225 93q97 0 218 -49q4 -2 9.5 -6t5.5 -15v-107z" />
<glyph unicode="&#xc8;" horiz-adv-x="624" d="M556 20q0 -11 -8 -15.5t-12 -4.5h-456q-10 0 -16.5 6t-6.5 15.5t7 16.5t16 7h46v534h-46q-10 0 -16.5 6t-6.5 15.5t7 16t16 6.5h446q17 0 20 -6t3 -16v-86q0 -11 -8 -15.5t-12 -4.5h-10q-4 0 -12.5 4t-8.5 17v56h-287v-216h204v46q0 13 8.5 17t12.5 4h10q4 0 12 -4.5 t8 -15.5v-145q0 -11 -8 -15.5t-12 -4.5h-10q-4 0 -12.5 4t-8.5 17v47h-204v-255h293v56q0 13 9 17t12 4h11q4 0 12 -4.5t8 -15.5v-88zM220 783q0 10 18 10h33q10 0 19 -9l42 -62q14 -18 14 -25q0 -15 -17 -15t-27 10l-74 73q-8 8 -8 18z" />
<glyph unicode="&#xc9;" horiz-adv-x="624" d="M556 20q0 -11 -8 -15.5t-12 -4.5h-456q-10 0 -16.5 6t-6.5 15.5t7 16.5t16 7h46v534h-46q-10 0 -16.5 6t-6.5 15.5t7 16t16 6.5h446q17 0 20 -6t3 -16v-86q0 -11 -8 -15.5t-12 -4.5h-10q-4 0 -12.5 4t-8.5 17v56h-287v-216h204v46q0 13 8.5 17t12.5 4h10q4 0 12 -4.5 t8 -15.5v-145q0 -11 -8 -15.5t-12 -4.5h-10q-4 0 -12.5 4t-8.5 17v47h-204v-255h293v56q0 13 9 17t12 4h11q4 0 12 -4.5t8 -15.5v-88zM383 793q18 0 18 -10t-8 -18l-74 -73q-10 -10 -27 -10t-17 15q0 7 14 25l43 62q9 9 19 9h32z" />
<glyph unicode="&#xca;" horiz-adv-x="624" d="M556 20q0 -11 -8 -15.5t-12 -4.5h-456q-10 0 -16.5 6t-6.5 15.5t7 16.5t16 7h46v534h-46q-10 0 -16.5 6t-6.5 15.5t7 16t16 6.5h446q17 0 20 -6t3 -16v-86q0 -11 -8 -15.5t-12 -4.5h-10q-4 0 -12.5 4t-8.5 17v56h-287v-216h204v46q0 13 8.5 17t12.5 4h10q4 0 12 -4.5 t8 -15.5v-145q0 -11 -8 -15.5t-12 -4.5h-10q-4 0 -12.5 4t-8.5 17v47h-204v-255h293v56q0 13 9 17t12 4h11q4 0 12 -4.5t8 -15.5v-88zM424 697q0 -15 -16 -15q-11 0 -23 10l-72 58l-74 -58q-11 -10 -23 -10q-16 0 -16 15q0 9 14 25l53 62q9 9 19 9h52q10 0 19 -9l53 -62 q14 -14 14 -25z" />
<glyph unicode="&#xcb;" horiz-adv-x="624" d="M556 20q0 -11 -8 -15.5t-12 -4.5h-456q-10 0 -16.5 6t-6.5 15.5t7 16.5t16 7h46v534h-46q-10 0 -16.5 6t-6.5 15.5t7 16t16 6.5h446q17 0 20 -6t3 -16v-86q0 -11 -8 -15.5t-12 -4.5h-10q-4 0 -12.5 4t-8.5 17v56h-287v-216h204v46q0 13 8.5 17t12.5 4h10q4 0 12 -4.5 t8 -15.5v-145q0 -11 -8 -15.5t-12 -4.5h-10q-4 0 -12.5 4t-8.5 17v47h-204v-255h293v56q0 13 9 17t12 4h11q4 0 12 -4.5t8 -15.5v-88zM279 738q0 -20 -14 -34t-34.5 -14t-34.5 14t-14 34t14.5 34.5t34.5 14.5t34 -14.5t14 -34.5zM427.5 772.5q14.5 -14.5 14.5 -35t-13.5 -34 t-34.5 -13.5t-35 14t-14 34t14 34.5t34 14.5t34.5 -14.5z" />
<glyph unicode="&#xcc;" horiz-adv-x="338" d="M273.5 38.5q6.5 -6.5 6.5 -16t-7 -16t-16 -6.5h-177q-10 0 -16.5 6t-6.5 15.5t7 16.5t16 7h46v534h-46q-10 0 -16.5 6t-6.5 15.5t7 16t16 6.5h177q10 0 16.5 -6t6.5 -15.5t-7 -16t-16 -6.5h-46v-534h46q10 0 16.5 -6.5zM203 697q0 -15 -16.5 -15t-26.5 10l-75 73 q-7 7 -7 17.5t18 10.5h32q10 0 19 -9l43 -62q13 -16 13 -25z" />
<glyph unicode="&#xcd;" horiz-adv-x="338" d="M273.5 38.5q6.5 -6.5 6.5 -16t-7 -16t-16 -6.5h-177q-10 0 -16.5 6t-6.5 15.5t7 16.5t16 7h46v534h-46q-10 0 -16.5 6t-6.5 15.5t7 16t16 6.5h177q10 0 16.5 -6t6.5 -15.5t-7 -16t-16 -6.5h-46v-534h46q10 0 16.5 -6.5zM178 692q-10 -10 -27 -10t-17 15q0 9 13 25l43 62 q9 9 19 9h32q18 0 18 -10q0 -11 -7 -18z" />
<glyph unicode="&#xce;" horiz-adv-x="338" d="M273.5 38.5q6.5 -6.5 6.5 -16t-7 -16t-16 -6.5h-177q-10 0 -16.5 6t-6.5 15.5t7 16.5t16 7h46v534h-46q-10 0 -16.5 6t-6.5 15.5t7 16t16 6.5h177q10 0 16.5 -6t6.5 -15.5t-7 -16t-16 -6.5h-46v-534h46q10 0 16.5 -6.5zM281 697q0 -15 -15 -15q-11 0 -24 10l-72 58 l-73 -58q-14 -10 -24 -10q-15 0 -15 15q0 7 13 25l53 62q9 9 19 9h53q10 0 19 -9l53 -62q13 -13 13 -25z" />
<glyph unicode="&#xcf;" horiz-adv-x="338" d="M273.5 38.5q6.5 -6.5 6.5 -16t-7 -16t-16 -6.5h-177q-10 0 -16.5 6t-6.5 15.5t7 16.5t16 7h46v534h-46q-10 0 -16.5 6t-6.5 15.5t7 16t16 6.5h177q10 0 16.5 -6t6.5 -15.5t-7 -16t-16 -6.5h-46v-534h46q10 0 16.5 -6.5zM137 738q0 -20 -14 -34t-34.5 -14t-34.5 14t-14 34 t14.5 34.5t34 14.5t34 -14.5t14.5 -34.5zM299 738q0 -20 -14 -34t-34.5 -14t-34.5 14t-14 34t14.5 34.5t34 14.5t34 -14.5t14.5 -34.5z" />
<glyph unicode="&#xd0;" horiz-adv-x="686" d="M481.5 116.5q61.5 71.5 61.5 196t-62 195.5t-189 71h-77v-227h117q10 0 16.5 -6t6.5 -15v-8q0 -9 -7 -16t-16 -7h-117v-255h77q128 0 189.5 71.5zM639 313q0 -152 -96 -235q-90 -78 -245 -78h-215q-10 0 -16.5 6t-6.5 15.5t7 16.5t16 7h48v255h-61q-9 0 -16 6.5t-7 15.5 v8q0 9 7.5 15.5t15.5 6.5h61v227h-48q-10 0 -16.5 6t-6.5 15.5t7 16t16 6.5h215q155 0 246 -77q95 -80 95 -233z" />
<glyph unicode="&#xd1;" horiz-adv-x="748" d="M626 9q0 -21 -23 -21h-15q-16 0 -23 14l-388 511v-468h51q9 0 16 -6.5t7 -16t-7.5 -16t-15.5 -6.5h-153q-9 0 -16 6t-7 15.5t7.5 16.5t15.5 7h50v534h-50q-9 0 -16 6t-7 15.5t7.5 16t15.5 6.5h116q10 0 14 -5t10 -13l360 -473v447h-50q-8 0 -15 6.5t-7 16t6.5 15.5 t15.5 6h152q9 0 16 -6.5t7 -16t-6.5 -15.5t-16.5 -6h-51v-570zM504 781.5q6 -6.5 6 -18t-6 -23.5t-16 -22q-25 -22 -50.5 -22t-41.5 6.5t-30 15.5q-34 21 -49 21t-25.5 -9.5t-12.5 -19.5q-3 -14 -16 -14q-24 0 -24 24q0 25 22 46q24 22 48.5 22t40.5 -6.5t30 -15.5 q35 -21 52.5 -21t27 9t10.5 18q3 16 20 16q8 0 14 -6.5z" />
<glyph unicode="&#xd2;" horiz-adv-x="701" d="M558 310q0 53 -9 103t-33 89q-52 88 -165 88q-114 0 -167 -87q-41 -69 -41 -192t41 -192q53 -87 167 -87q113 0 165 87q42 69 42 191zM654 312q0 -69 -21 -128t-61 -102q-84 -94 -221 -94q-138 0 -222 94q-81 90 -81 229q0 141 80 231q84 93 223 93t223 -93 q80 -90 80 -230zM258 783q0 10 18 10h33q10 0 19 -9l42 -62q14 -18 14 -25q0 -15 -17 -15t-27 10l-74 73q-8 8 -8 18z" />
<glyph unicode="&#xd3;" horiz-adv-x="701" d="M558 310q0 53 -9 103t-33 89q-52 88 -165 88q-114 0 -167 -87q-41 -69 -41 -192t41 -192q53 -87 167 -87q113 0 165 87q42 69 42 191zM654 312q0 -69 -21 -128t-61 -102q-84 -94 -221 -94q-138 0 -222 94q-81 90 -81 229q0 141 80 231q84 93 223 93t223 -93 q80 -90 80 -230zM422 793q18 0 18 -10t-8 -18l-74 -73q-10 -10 -27 -10t-17 15q0 7 14 25l42 62q9 9 19 9h33z" />
<glyph unicode="&#xd4;" horiz-adv-x="701" d="M558 310q0 53 -9 103t-33 89q-52 88 -165 88q-114 0 -167 -87q-41 -69 -41 -192t41 -192q53 -87 167 -87q113 0 165 87q42 69 42 191zM654 312q0 -69 -21 -128t-61 -102q-84 -94 -221 -94q-138 0 -222 94q-81 90 -81 229q0 141 80 231q84 93 223 93t223 -93 q80 -90 80 -230zM463 697q0 -15 -15 -15q-11 0 -24 10l-72 58l-73 -58q-14 -10 -24 -10q-15 0 -15 15q0 7 13 25l53 62q9 9 19 9h53q10 0 19 -9l53 -62q13 -13 13 -25z" />
<glyph unicode="&#xd5;" horiz-adv-x="701" d="M558 310q0 53 -9 103t-33 89q-52 88 -165 88q-114 0 -167 -87q-41 -69 -41 -192t41 -192q53 -87 167 -87q113 0 165 87q42 69 42 191zM654 312q0 -69 -21 -128t-61 -102q-84 -94 -221 -94q-138 0 -222 94q-81 90 -81 229q0 141 80 231q84 93 223 93t223 -93 q80 -90 80 -230zM482 781.5q6 -6.5 6 -18t-6 -23.5t-16 -22q-25 -22 -50.5 -22t-41.5 6.5t-30 15.5q-34 21 -49.5 21t-26 -9.5t-12.5 -19.5q-2 -14 -14 -14q-25 0 -25 24q0 25 22 46q24 22 48.5 22t40 -6.5t30.5 -15.5q36 -21 52.5 -21t26 9t11.5 18q2 16 20 16q8 0 14 -6.5 z" />
<glyph unicode="&#xd6;" horiz-adv-x="701" d="M558 310q0 53 -9 103t-33 89q-52 88 -165 88q-114 0 -167 -87q-41 -69 -41 -192t41 -192q53 -87 167 -87q113 0 165 87q42 69 42 191zM654 312q0 -69 -21 -128t-61 -102q-84 -94 -221 -94q-138 0 -222 94q-81 90 -81 229q0 141 80 231q84 93 223 93t223 -93 q80 -90 80 -230zM303.5 772.5q14.5 -14.5 14.5 -35t-14 -34t-35 -13.5t-35 14t-14 34t14.5 34.5t34.5 14.5t34.5 -14.5zM481 738q0 -20 -14 -34t-35 -14t-35 13.5t-14 34t14.5 35t34.5 14.5t34.5 -14.5t14.5 -34.5z" />
<glyph unicode="&#xd7;" horiz-adv-x="293" d="M212 138l-66 72l-66 -71l-49 49l71 66l-72 67l51 50l66 -71l66 71l49 -50l-70 -65l71 -67z" />
<glyph unicode="&#xd8;" horiz-adv-x="701" d="M193 106q52 -74 158 -74q113 0 165 87q42 69 42 192q0 96 -28 165zM507 517q-53 73 -156 73q-114 0 -167 -87q-41 -69 -41 -192q0 -97 28 -164zM582 533q72 -88 72 -222q0 -140 -82 -229q-84 -94 -213.5 -94t-207.5 72l-61 -68q-6 -7 -15 -7.5t-16 5.5t-7.5 16t5.5 16 l63 70q-72 88 -72 219q0 141 80 231q84 93 223 93q119 0 200 -70l58 64q15 17 32 3q15 -15 1 -32z" />
<glyph unicode="&#xd9;" horiz-adv-x="720" d="M665.5 616.5q7.5 -6.5 7.5 -16t-7 -15.5t-16 -6h-47v-331q0 -137 -51 -196q-55 -64 -190 -64t-190 63q-52 59 -52 197v331h-48q-9 0 -16 6t-7 15.5t7.5 16t15.5 6.5h180q9 0 16 -6t7 -15.5t-7.5 -16t-15.5 -6.5h-48v-323q0 -109 32 -156q38 -57 142 -57q102 0 142 57 q32 47 32 156v323h-48q-8 0 -15 6.5t-7 16t6.5 15.5t15.5 6h146q8 0 15.5 -6.5zM286 783q0 10 18 10h32q10 0 19 -9l43 -62q13 -16 13 -25q0 -15 -16.5 -15t-26.5 10l-74 73q-8 8 -8 18z" />
<glyph unicode="&#xda;" horiz-adv-x="720" d="M665.5 616.5q7.5 -6.5 7.5 -16t-7 -15.5t-16 -6h-47v-331q0 -137 -51 -196q-55 -64 -190 -64t-190 63q-52 59 -52 197v331h-48q-9 0 -16 6t-7 15.5t7.5 16t15.5 6.5h180q9 0 16 -6t7 -15.5t-7.5 -16t-15.5 -6.5h-48v-323q0 -109 32 -156q38 -57 142 -57q102 0 142 57 q32 47 32 156v323h-48q-8 0 -15 6.5t-7 16t6.5 15.5t15.5 6h146q8 0 15.5 -6.5zM385 692q-10 -10 -27 -10t-17 15q0 9 13 25l43 62q9 9 19 9h32q18 0 18 -10q0 -11 -7 -18z" />
<glyph unicode="&#xdb;" horiz-adv-x="720" d="M665.5 616.5q7.5 -6.5 7.5 -16t-7 -15.5t-16 -6h-47v-331q0 -137 -51 -196q-55 -64 -190 -64t-190 63q-52 59 -52 197v331h-48q-9 0 -16 6t-7 15.5t7.5 16t15.5 6.5h180q9 0 16 -6t7 -15.5t-7.5 -16t-15.5 -6.5h-48v-323q0 -109 32 -156q38 -57 142 -57q102 0 142 57 q32 47 32 156v323h-48q-8 0 -15 6.5t-7 16t6.5 15.5t15.5 6h146q8 0 15.5 -6.5zM487 697q0 -15 -15 -15q-12 0 -24 10l-72 58l-73 -58q-13 -10 -24 -10q-15 0 -15 15q0 10 13 25l53 62q9 9 19 9h52q10 0 19 -9l54 -62q13 -16 13 -25z" />
<glyph unicode="&#xdc;" horiz-adv-x="720" d="M665.5 616.5q7.5 -6.5 7.5 -16t-7 -15.5t-16 -6h-47v-331q0 -137 -51 -196q-55 -64 -190 -64t-190 63q-52 59 -52 197v331h-48q-9 0 -16 6t-7 15.5t7.5 16t15.5 6.5h180q9 0 16 -6t7 -15.5t-7.5 -16t-15.5 -6.5h-48v-323q0 -109 32 -156q38 -57 142 -57q102 0 142 57 q32 47 32 156v323h-48q-8 0 -15 6.5t-7 16t6.5 15.5t15.5 6h146q8 0 15.5 -6.5zM330 772.5q15 -14.5 15 -35t-14 -34t-35 -13.5t-35 14t-14 34t14.5 34.5t34 14.5t34.5 -14.5zM506 738q0 -20 -13 -34t-34.5 -14t-35.5 13.5t-14 34t15 35t34.5 14.5t33.5 -14.5t14 -34.5z" />
<glyph unicode="&#xdd;" horiz-adv-x="564" d="M555 616.5q7 -6.5 7 -16t-6.5 -15.5t-15.5 -6h-27l-187 -303v-231h47q10 0 16.5 -6.5t6.5 -16t-7 -16t-16 -6.5h-179q-10 0 -16.5 6t-6.5 15.5t7 16.5t16 7h47v224l-193 310h-25q-10 0 -16.5 6t-6.5 15.5t7 16t16 6.5h167q9 0 16 -6t7 -15.5t-7.5 -16t-15.5 -6.5h-41 l156 -252l156 252h-38q-9 0 -16 6.5t-7 16t6.5 15.5t16.5 6h117q8 0 15 -6.5zM290 692q-10 -10 -27 -10t-17 15q0 9 13 25l43 62q9 9 19 9h32q18 0 18 -10q0 -11 -7 -18z" />
<glyph unicode="&#xde;" horiz-adv-x="578" d="M321 181q127 0 127 131t-127 131h-110v-262h110zM280 134q-37 2 -69 2v-92h61q8 0 15.5 -6t7.5 -15.5t-7 -16t-16 -6.5h-187q-9 0 -15.5 6t-6.5 15.5t7 16.5t15 7h41v534h-41q-8 0 -15 6.5t-7 16t6.5 15.5t15.5 6h187q9 0 16 -6.5t7 -16t-6.5 -16t-16.5 -6.5l-61 1v-92 q33 0 70 1.5t75 -0.5q87 -6 137.5 -51t50.5 -125.5t-57.5 -131.5t-206.5 -46z" />
<glyph unicode="&#xdf;" horiz-adv-x="571" d="M222 93q0 22 18 22h11q14 0 19.5 -27t28.5 -43t63 -16t67.5 24t27.5 63.5t-14.5 61.5t-37 39t-48 31.5t-47.5 31.5q-52 39 -52 95q0 54 40 91q35 30 94 39q-3 51 -31.5 77.5t-82.5 26.5t-78 -28t-24 -84v-475q0 -9 -7 -15.5t-16 -6.5h-95q-8 0 -15.5 6.5t-7.5 16t7 16 t16 6.5h40l1 450q0 79 53 119q47 36 129 36q164 0 185 -151q1 -5 -1 -15t-17.5 -10t-37 -4t-39.5 -14q-42 -22 -42 -66q0 -24 15 -41t38 -32.5t49.5 -31t49.5 -35.5q53 -48 53 -115q0 -70 -54 -111q-48 -36 -120 -36t-126 25q-12 8 -12 20v60z" />
<glyph unicode="&#xe0;" horiz-adv-x="510" d="M340 234h-99q-52 0 -82.5 -22.5t-30.5 -75t29 -78.5t77 -26t77 29.5t29 78.5v94zM92 332q-12 0 -15 14v62q0 12 16 20q69 28 135 28q89 0 139 -43.5t50 -135.5v-232h36q9 0 16 -7t7 -16.5t-7 -15.5t-16 -6h-90q-9 0 -16 6.5t-7 15.5v26q-51 -60 -137 -60q-112 0 -148 82 q-12 27 -12 65t14 64.5t37.5 43t54.5 24t64 10t66 2t61 -0.5v31q0 54 -32.5 79.5t-77.5 25.5q-90 0 -109 -67q-2 -4 -4.5 -9.5t-10.5 -5.5h-14zM112 673q0 10 18 10h33q10 0 19 -9l75 -108q14 -18 14 -25q0 -15 -20 -15q-15 0 -24 10l-107 119q-8 8 -8 18z" />
<glyph unicode="&#xe1;" horiz-adv-x="510" d="M340 234h-99q-52 0 -82.5 -22.5t-30.5 -75t29 -78.5t77 -26t77 29.5t29 78.5v94zM92 332q-12 0 -15 14v62q0 12 16 20q69 28 135 28q89 0 139 -43.5t50 -135.5v-232h36q9 0 16 -7t7 -16.5t-7 -15.5t-16 -6h-90q-9 0 -16 6.5t-7 15.5v26q-51 -60 -137 -60q-112 0 -148 82 q-12 27 -12 65t14 64.5t37.5 43t54.5 24t64 10t66 2t61 -0.5v31q0 54 -32.5 79.5t-77.5 25.5q-90 0 -109 -67q-2 -4 -4.5 -9.5t-10.5 -5.5h-14zM342 683q18 0 18 -10t-8 -18l-107 -119q-9 -10 -24 -10q-20 0 -20 15q0 7 14 25l75 108q9 9 19 9h33z" />
<glyph unicode="&#xe2;" horiz-adv-x="510" d="M340 234h-99q-52 0 -82.5 -22.5t-30.5 -75t29 -78.5t77 -26t77 29.5t29 78.5v94zM92 332q-12 0 -15 14v62q0 12 16 20q69 28 135 28q89 0 139 -43.5t50 -135.5v-232h36q9 0 16 -7t7 -16.5t-7 -15.5t-16 -6h-90q-9 0 -16 6.5t-7 15.5v26q-51 -60 -137 -60q-112 0 -148 82 q-12 27 -12 65t14 64.5t37.5 43t54.5 24t64 10t66 2t61 -0.5v31q0 54 -32.5 79.5t-77.5 25.5q-90 0 -109 -67q-2 -4 -4.5 -9.5t-10.5 -5.5h-14zM135 527q-20 0 -20 15q0 8 14 25l68 108q9 9 19 9h43q10 0 19 -9l68 -108q14 -17 14 -25q0 -15 -20 -15q-18 0 -24 9l-79 100 l-77 -101q-6 -8 -25 -8z" />
<glyph unicode="&#xe3;" horiz-adv-x="510" d="M340 234h-99q-52 0 -82.5 -22.5t-30.5 -75t29 -78.5t77 -26t77 29.5t29 78.5v94zM92 332q-12 0 -15 14v62q0 12 16 20q69 28 135 28q89 0 139 -43.5t50 -135.5v-232h36q9 0 16 -7t7 -16.5t-7 -15.5t-16 -6h-90q-9 0 -16 6.5t-7 15.5v26q-51 -60 -137 -60q-112 0 -148 82 q-12 27 -12 65t14 64.5t37.5 43t54.5 24t64 10t66 2t61 -0.5v31q0 54 -32.5 79.5t-77.5 25.5q-90 0 -109 -67q-2 -4 -4.5 -9.5t-10.5 -5.5h-14zM367.5 658q6.5 -6 6.5 -18.5t-5 -29.5t-15 -32q-22 -32 -61 -32q-33 0 -64 32q-12 13 -23.5 23t-28.5 10t-24.5 -15t-9.5 -26 t-6 -17.5t-13.5 -6.5t-16 6t-6.5 18.5t5 29.5t14 31q23 33 61 33q22 0 37 -10t27.5 -22.5t24 -22.5t28.5 -10t24.5 15t9.5 26t5.5 17.5t13.5 6.5t16.5 -6z" />
<glyph unicode="&#xe4;" horiz-adv-x="510" d="M340 234h-99q-52 0 -82.5 -22.5t-30.5 -75t29 -78.5t77 -26t77 29.5t29 78.5v94zM92 332q-12 0 -15 14v62q0 12 16 20q69 28 135 28q89 0 139 -43.5t50 -135.5v-232h36q9 0 16 -7t7 -16.5t-7 -15.5t-16 -6h-90q-9 0 -16 6.5t-7 15.5v26q-51 -60 -137 -60q-112 0 -148 82 q-12 27 -12 65t14 64.5t37.5 43t54.5 24t64 10t66 2t61 -0.5v31q0 54 -32.5 79.5t-77.5 25.5q-90 0 -109 -67q-2 -4 -4.5 -9.5t-10.5 -5.5h-14zM190.5 641q14.5 -14 14.5 -35.5t-13.5 -34.5t-35 -13t-35.5 14t-14 34t14.5 34.5t34.5 14.5t34.5 -14zM368 606q0 -20 -14 -34 t-35.5 -14t-35 13t-13.5 34t14.5 35.5t34.5 14.5t34.5 -14.5t14.5 -34.5z" />
<glyph unicode="&#xe5;" horiz-adv-x="510" d="M340 234h-99q-52 0 -82.5 -22.5t-30.5 -75t29 -78.5t77 -26t77 29.5t29 78.5v94zM301 636q0 28 -18.5 45.5t-46 17.5t-45 -17t-17.5 -45.5t17.5 -46t46 -17.5t46 17.5t17.5 45.5zM92 332q-12 0 -15 14v62q0 12 16 20q69 28 135 28q89 0 139 -43.5t50 -135.5v-232h36 q9 0 16 -7t7 -16.5t-7 -15.5t-16 -6h-90q-9 0 -16 6.5t-7 15.5v26q-51 -60 -137 -60q-112 0 -148 82q-12 27 -12 65t14 64.5t37.5 43t54.5 24t64 10t66 2t61 -0.5v31q0 54 -32.5 79.5t-77.5 25.5q-90 0 -109 -67q-2 -4 -4.5 -9.5t-10.5 -5.5h-14zM237 522q-48 0 -81 33 t-33 81q0 47 33 82q31 32 80.5 32t82 -32.5t32.5 -82t-33.5 -81.5t-80.5 -32z" />
<glyph unicode="&#xe6;" horiz-adv-x="804" d="M340 234h-99q-52 0 -82.5 -22.5t-30.5 -75t29 -78.5t77 -26t77 29.5t29 78.5v94zM671 258q-4 108 -63 142q-23 14 -56.5 14t-55.5 -14t-36 -36q-25 -41 -30 -106h241zM92 332q-15 0 -15 14v62q0 12 16 20q69 28 126.5 28t101 -15t69.5 -59q63 74 160 74q100 0 154 -62 q50 -57 56 -157q0 -6 -4.5 -14.5t-18.5 -8.5h-307v-4q0 -181 133 -181q94 0 123 90q2 4 5.5 10t17.5 6h16q14 0 18 -10t1 -17q-46 -120 -189 -120q-104 0 -169 75q-69 -75 -171 -75q-120 0 -159 78q-13 28 -13 67.5t14 66t37.5 43t54.5 24t64 10t66 2t61 -0.5v31 q0 54 -31 79.5t-77 25.5q-92 0 -111 -67q-2 -4 -4.5 -9.5t-10.5 -5.5h-14z" />
<glyph unicode="&#xe7;" horiz-adv-x="479" d="M132 222q0 -193 126 -193q89 0 116 88q1 4 6.5 10t14.5 6h16q16 0 19 -11t1 -18q-36 -99 -138 -114q4 -5 11.5 -13.5t14.5 -20.5q18 -29 18 -50t-9 -35t-23 -22q-26 -15 -69 -15q-73 0 -73 32q0 13 8 17.5t19 5.5l38 -3q50 3 52 41q0 22 -28 61q-99 2 -156 70 q-53 63 -53 164q0 102 55 166q58 68 159 68q80 0 152 -33q16 -8 16 -22v-83q0 -5 -4.5 -10t-10.5 -5h-16q-11 0 -13.5 6t-3.5 9q-10 48 -37.5 72t-81.5 24q-126 0 -126 -192z" />
<glyph unicode="&#xe8;" horiz-adv-x="506" d="M372 258q-5 156 -119 156q-86 0 -111 -101q-7 -28 -10 -55h240zM463 237q0 -6 -4.5 -14.5t-18.5 -8.5h-308v-4q0 -125 68 -166q26 -15 70 -15q90 0 119 90q2 4 5.5 10t17.5 6h16q14 0 18 -10t1 -17q-46 -120 -189 -120q-101 0 -160 68q-55 63 -55 166q0 102 53 166 q58 68 157 68q100 0 155 -62q49 -57 55 -157zM288 541q0 -15 -16.5 -15t-26.5 10l-108 119q-7 7 -7 17.5t18 10.5h33q10 0 19 -9l75 -108q13 -16 13 -25z" />
<glyph unicode="&#xe9;" horiz-adv-x="506" d="M372 258q-5 156 -119 156q-86 0 -111 -101q-7 -28 -10 -55h240zM463 237q0 -6 -4.5 -14.5t-18.5 -8.5h-308v-4q0 -125 68 -166q26 -15 70 -15q90 0 119 90q2 4 5.5 10t17.5 6h16q14 0 18 -10t1 -17q-46 -120 -189 -120q-101 0 -160 68q-55 63 -55 166q0 102 53 166 q58 68 157 68q100 0 155 -62q49 -57 55 -157zM259 536q-10 -10 -26.5 -10t-16.5 15q0 5 5 12.5t8 12.5l75 108q9 9 19 9h33q18 0 18 -10q0 -11 -7 -18z" />
<glyph unicode="&#xea;" horiz-adv-x="506" d="M372 258q-5 156 -119 156q-86 0 -111 -101q-7 -28 -10 -55h240zM463 237q0 -6 -4.5 -14.5t-18.5 -8.5h-308v-4q0 -125 68 -166q26 -15 70 -15q90 0 119 90q2 4 5.5 10t17.5 6h16q14 0 18 -10t1 -17q-46 -120 -189 -120q-101 0 -160 68q-55 63 -55 166q0 102 53 166 q58 68 157 68q100 0 155 -62q49 -57 55 -157zM131 542q0 5 5 12.5t8 12.5l68 108q9 9 19 9h44q10 0 19 -9l68 -108q3 -5 8 -12.5t5 -12.5q0 -15 -20 -15q-18 0 -24 9l-78 100l-78 -101q-6 -8 -25 -8t-19 15z" />
<glyph unicode="&#xeb;" horiz-adv-x="506" d="M372 258q-5 156 -119 156q-86 0 -111 -101q-7 -28 -10 -55h240zM463 237q0 -6 -4.5 -14.5t-18.5 -8.5h-308v-4q0 -125 68 -166q26 -15 70 -15q90 0 119 90q2 4 5.5 10t17.5 6h16q14 0 18 -10t1 -17q-46 -120 -189 -120q-101 0 -160 68q-55 63 -55 166q0 102 53 166 q58 68 157 68q100 0 155 -62q49 -57 55 -157zM206 640.5q14 -14.5 14 -35.5t-13 -34t-35 -13t-35.5 13.5t-13.5 34t14.5 35t34.5 14.5t34 -14.5zM368.5 640.5q14.5 -14.5 14.5 -35t-13.5 -34t-35.5 -13.5t-35 13t-13 34t14 35.5t34 14.5t34.5 -14.5z" />
<glyph unicode="&#xec;" horiz-adv-x="274" d="M237.5 38.5q6.5 -6.5 6.5 -16t-7 -16t-16 -6.5h-157q-10 0 -16.5 6t-6.5 15.5t7 16.5t16 7h40v354h-40q-10 0 -16.5 6t-6.5 15.5t7 16.5t16 7h95q9 0 15.5 -6.5t6.5 -15.5v-377h40q10 0 16.5 -6.5zM20 655q-8 9 -8 18.5t18 9.5h34q10 0 19 -9l75 -108q3 -5 8 -12.5 t5 -12.5q0 -15 -20 -15q-15 0 -24 10z" />
<glyph unicode="&#xed;" horiz-adv-x="274" d="M237.5 38.5q6.5 -6.5 6.5 -16t-7 -16t-16 -6.5h-157q-10 0 -16.5 6t-6.5 15.5t7 16.5t16 7h40v354h-40q-10 0 -16.5 6t-6.5 15.5t7 16.5t16 7h95q9 0 15.5 -6.5t6.5 -15.5v-377h40q10 0 16.5 -6.5zM145 536q-10 -10 -26.5 -10t-16.5 15q0 9 13 25l75 108q9 9 19 9h33 q18 0 18 -10q0 -11 -7 -18z" />
<glyph unicode="&#xee;" horiz-adv-x="274" d="M237.5 38.5q6.5 -6.5 6.5 -16t-7 -16t-16 -6.5h-157q-10 0 -16.5 6t-6.5 15.5t7 16.5t16 7h40v354h-40q-10 0 -16.5 6t-6.5 15.5t7 16.5t16 7h95q9 0 15.5 -6.5t6.5 -15.5v-377h40q10 0 16.5 -6.5zM35 527q-20 0 -20 15q0 8 14 25l67 108q9 9 19 9h44q10 0 19 -9l68 -108 q3 -5 8 -12.5t5 -12.5q0 -15 -20 -15q-17 0 -23 9l-79 100l-78 -101q-5 -8 -24 -8z" />
<glyph unicode="&#xef;" horiz-adv-x="274" d="M237.5 38.5q6.5 -6.5 6.5 -16t-7 -16t-16 -6.5h-157q-10 0 -16.5 6t-6.5 15.5t7 16.5t16 7h40v354h-40q-10 0 -16.5 6t-6.5 15.5t7 16.5t16 7h95q9 0 15.5 -6.5t6.5 -15.5v-377h40q10 0 16.5 -6.5zM90 641q14 -14 14 -35.5t-13 -34.5t-34.5 -13t-35.5 14t-14 34t14 34.5 t34.5 14.5t34.5 -14zM252.5 640.5q14.5 -14.5 14.5 -35t-13.5 -34t-35.5 -13.5t-35.5 13t-13.5 34t14.5 35.5t34.5 14.5t34.5 -14.5z" />
<glyph unicode="&#xf0;" horiz-adv-x="515" d="M343 388q-40 7 -76 7t-63.5 -15t-43.5 -40q-28 -44 -28 -128q0 -121 63 -166q24 -17 62 -17q69 0 101 62q24 46 24 130.5t-39 166.5zM317 545q155 -140 155 -323q0 -103 -56 -166q-58 -68 -159 -68q-98 0 -157 66q-57 62 -57 163q0 99 57 158q59 61 156 61q17 0 33.5 -2 t33.5 -4q-20 46 -61 90l-116 -54q-5 -2 -7 -2h-6q-6 0 -11 5.5t-4 14t8 12.5l109 50q-43 41 -111 63q-5 1 -10.5 4t-5.5 15q-1 12 9.5 15t34 -3.5t62 -24.5t73.5 -44l116 54q5 2 7 2h7q5 0 10 -5.5t5 -9.5q-2 -14 -9 -17z" />
<glyph unicode="&#xf1;" horiz-adv-x="551" d="M181 365q42 91 134 91q114 0 137 -105q7 -32 7 -69v-237h37q9 0 16 -6.5t7 -16t-7.5 -16t-15.5 -6.5h-149q-10 0 -16.5 6t-6.5 15.5t7 16.5t16 7h34v217q0 66 -11 90t-29 36t-50.5 12t-54 -13.5t-34.5 -35.5q-21 -38 -21 -104v-202h36q9 0 15.5 -6.5t6.5 -16t-7 -16 t-15 -6.5h-150q-9 0 -15.5 6t-6.5 15.5t7 16.5t15 7h37v354h-40q-10 0 -16.5 6t-6.5 15.5t7 16.5t16 7h95q9 0 15.5 -6.5t6.5 -15.5v-57zM404.5 658q6.5 -6 6.5 -18.5t-5 -29.5t-14 -32q-22 -32 -61 -32q-33 0 -64 32q-12 13 -23.5 23t-28.5 10q-29 0 -35 -47 q-2 -5 -5.5 -11.5t-13.5 -6.5t-16.5 6t-6.5 18.5t5 29.5t15 31q22 33 60 33q22 0 37 -10t27.5 -22.5t24 -22.5t28.5 -10t24.5 15t9.5 26t6 17.5t13.5 6.5t16 -6z" />
<glyph unicode="&#xf2;" horiz-adv-x="515" d="M257 414q-125 0 -125 -192q0 -129 60 -174q25 -19 65 -19q71 0 103 65q22 48 22 128q0 192 -125 192zM472 222q0 -103 -56 -166q-58 -68 -159 -68t-159 68q-55 64 -55 166t55 166q58 68 159 68t159 -68q56 -63 56 -166zM132 673q0 10 18 10h33q10 0 19 -9l75 -108 q14 -18 14 -25q0 -15 -20 -15q-15 0 -24 10l-107 119q-8 8 -8 18z" />
<glyph unicode="&#xf3;" horiz-adv-x="515" d="M257 414q-125 0 -125 -192q0 -129 60 -174q25 -19 65 -19q71 0 103 65q22 48 22 128q0 192 -125 192zM472 222q0 -103 -56 -166q-58 -68 -159 -68t-159 68q-55 64 -55 166t55 166q58 68 159 68t159 -68q56 -63 56 -166zM361 683q18 0 18 -10t-8 -18l-107 -119 q-9 -10 -24 -10q-20 0 -20 15q0 7 14 25l75 108q9 9 19 9h33z" />
<glyph unicode="&#xf4;" horiz-adv-x="515" d="M257 414q-125 0 -125 -192q0 -129 60 -174q25 -19 65 -19q71 0 103 65q22 48 22 128q0 192 -125 192zM472 222q0 -103 -56 -166q-58 -68 -159 -68t-159 68q-55 64 -55 166t55 166q58 68 159 68t159 -68q56 -63 56 -166zM155 527q-20 0 -20 15q0 8 14 25l68 108q9 9 19 9 h43q10 0 19 -9l68 -108q3 -5 8 -12.5t5 -12.5q0 -15 -20 -15q-17 0 -23 9l-79 100l-78 -101q-5 -8 -24 -8z" />
<glyph unicode="&#xf5;" horiz-adv-x="515" d="M257 414q-125 0 -125 -192q0 -129 60 -174q25 -19 65 -19q71 0 103 65q22 48 22 128q0 192 -125 192zM472 222q0 -103 -56 -166q-58 -68 -159 -68t-159 68q-55 64 -55 166t55 166q58 68 159 68t159 -68q56 -63 56 -166zM388.5 658q6.5 -6 6.5 -18.5t-5 -29.5t-14 -32 q-22 -32 -62 -32q-33 0 -64 32q-12 13 -23.5 23t-28.5 10q-27 0 -35 -47q-4 -18 -19 -18q-9 0 -15.5 6t-6.5 18.5t5 29.5t15 31q22 33 60 33q22 0 37 -10t27.5 -22.5t24 -22.5t28.5 -10t24.5 15t9.5 26t6 17.5t13.5 6.5t16 -6z" />
<glyph unicode="&#xf6;" horiz-adv-x="515" d="M257 414q-125 0 -125 -192q0 -129 60 -174q25 -19 65 -19q71 0 103 65q22 48 22 128q0 192 -125 192zM472 222q0 -103 -56 -166q-58 -68 -159 -68t-159 68q-55 64 -55 166t55 166q58 68 159 68t159 -68q56 -63 56 -166zM210 640.5q14 -14.5 14 -35.5t-13 -34t-35 -13 t-35.5 13.5t-13.5 34t14.5 35t34.5 14.5t34 -14.5zM372.5 640.5q14.5 -14.5 14.5 -35t-13.5 -34t-35.5 -13.5t-35 13t-13 34t14 35.5t34 14.5t34.5 -14.5z" />
<glyph unicode="&#xf7;" horiz-adv-x="428" d="M245 337h-62l-8 9v60l8 9h62l8 -9v-60zM390 224h-352l-8 9v42l8 10h352l8 -10v-42zM245 93h-62l-8 10v59l8 10h62l8 -10v-59z" />
<glyph unicode="&#xf8;" horiz-adv-x="515" d="M164 78q31 -49 93 -49q71 0 103 65q22 48 22 128q0 60 -12 101zM257 414q-125 0 -125 -192q0 -58 12 -99l205 245q-31 46 -92 46zM257 456q79 0 132 -41l44 52q6 8 15 9t16.5 -5t8.5 -15t-6 -17l-46 -55q51 -65 51 -162q0 -103 -56 -166q-58 -68 -159 -68q-77 0 -133 43 l-45 -54q-6 -7 -15 -8t-16 5t-7.5 15.5t4.5 16.5l48 56q-50 64 -50 160q0 102 55 166q58 68 159 68z" />
<glyph unicode="&#xf9;" horiz-adv-x="551" d="M370 79q-42 -91 -134 -91q-116 0 -138 104q-6 32 -6 69v238h-37q-9 0 -16 6t-7 15.5t7.5 16.5t15.5 7h92q10 0 16.5 -6.5t6.5 -15.5v-241q0 -67 11 -90t29 -35t50.5 -12t54 13.5t33.5 34.5q22 37 22 105v202h-35q-9 0 -15.5 6t-6.5 15.5t7 16.5t15 7h89q9 0 15.5 -6.5 t6.5 -15.5v-377h41q10 0 16.5 -6.5t6.5 -16t-7 -16t-16 -6.5h-95q-9 0 -15.5 6t-6.5 16v57zM278 541q0 -15 -16.5 -15t-26.5 10l-108 119q-7 7 -7 17.5t18 10.5h33q10 0 19 -9l75 -108q13 -16 13 -25z" />
<glyph unicode="&#xfa;" horiz-adv-x="551" d="M370 79q-42 -91 -134 -91q-116 0 -138 104q-6 32 -6 69v238h-37q-9 0 -16 6t-7 15.5t7.5 16.5t15.5 7h92q10 0 16.5 -6.5t6.5 -15.5v-241q0 -67 11 -90t29 -35t50.5 -12t54 13.5t33.5 34.5q22 37 22 105v202h-35q-9 0 -15.5 6t-6.5 15.5t7 16.5t15 7h89q9 0 15.5 -6.5 t6.5 -15.5v-377h41q10 0 16.5 -6.5t6.5 -16t-7 -16t-16 -6.5h-95q-9 0 -15.5 6t-6.5 16v57zM348 683q18 0 18 -9.5t-8 -18.5l-107 -119q-9 -10 -24 -10q-20 0 -20 15q0 5 5 12.5t8 12.5l75 108q9 9 19 9h34z" />
<glyph unicode="&#xfb;" horiz-adv-x="551" d="M370 79q-42 -91 -134 -91q-116 0 -138 104q-6 32 -6 69v238h-37q-9 0 -16 6t-7 15.5t7.5 16.5t15.5 7h92q10 0 16.5 -6.5t6.5 -15.5v-241q0 -67 11 -90t29 -35t50.5 -12t54 13.5t33.5 34.5q22 37 22 105v202h-35q-9 0 -15.5 6t-6.5 15.5t7 16.5t15 7h89q9 0 15.5 -6.5 t6.5 -15.5v-377h41q10 0 16.5 -6.5t6.5 -16t-7 -16t-16 -6.5h-95q-9 0 -15.5 6t-6.5 16v57zM121 542q0 5 5 12.5t8 12.5l68 108q9 9 19 9h44q10 0 19 -9l67 -108q14 -17 14 -25q0 -15 -20 -15q-18 0 -24 9l-78 100l-78 -101q-6 -8 -25 -8t-19 15z" />
<glyph unicode="&#xfc;" horiz-adv-x="551" d="M370 79q-42 -91 -134 -91q-116 0 -138 104q-6 32 -6 69v238h-37q-9 0 -16 6t-7 15.5t7.5 16.5t15.5 7h92q10 0 16.5 -6.5t6.5 -15.5v-241q0 -67 11 -90t29 -35t50.5 -12t54 13.5t33.5 34.5q22 37 22 105v202h-35q-9 0 -15.5 6t-6.5 15.5t7 16.5t15 7h89q9 0 15.5 -6.5 t6.5 -15.5v-377h41q10 0 16.5 -6.5t6.5 -16t-7 -16t-16 -6.5h-95q-9 0 -15.5 6t-6.5 16v57zM196.5 640.5q14.5 -14.5 14.5 -35.5t-13 -34t-35 -13t-35.5 13.5t-13.5 34t14 35t34 14.5t34.5 -14.5zM359 640.5q14 -14.5 14 -35t-13.5 -34t-35.5 -13.5t-35 13t-13 34t14.5 35.5 t34.5 14.5t34 -14.5z" />
<glyph unicode="&#xfd;" horiz-adv-x="483" d="M28 -109q0 17 13 17h11q11 0 13 -6.5t5 -17t14 -20t29 -9.5q34 0 50.5 22.5t28 54t22.5 60.5l-166 407h-19q-9 0 -15.5 6t-6.5 15.5t7 16.5t15 7h141q9 0 16 -6.5t7 -16t-7.5 -16t-15.5 -6.5h-39l125 -305l124 305h-34q-9 0 -16 6.5t-7 16t6.5 16t16.5 6.5h103q9 0 16 -7 t7 -16.5t-6.5 -15.5t-16.5 -6h-18l-203 -499q-18 -47 -37 -63q-32 -27 -82 -27q-81 0 -81 29v52zM345 683q18 0 18 -10t-8 -18l-107 -119q-9 -10 -24 -10q-20 0 -20 15q0 7 14 25l75 108q9 9 19 9h33z" />
<glyph unicode="&#xfe;" horiz-adv-x="547" d="M176 199q0 -163 119 -163q68 0 97 63q22 46 22 123t-17 113.5t-40.5 54.5t-61.5 18q-119 0 -119 -164v-45zM176 374q43 82 143 82q90 0 141 -74q44 -65 44 -160q0 -93 -44 -160q-51 -74 -141 -74q-101 0 -143 81v-202h40q9 0 15.5 -6t6.5 -15.5t-7 -16.5t-15 -7h-159 q-9 0 -16 6.5t-7 16t7.5 16t15.5 6.5h42v738h-42q-9 0 -16 6.5t-7 16t7 16t16 6.5h96q9 0 16 -6.5t7 -15.5v-254z" />
<glyph unicode="&#xff;" horiz-adv-x="483" d="M28 -109q0 17 13 17h11q11 0 13 -6.5t5 -17t14 -20t29 -9.5q34 0 50.5 22.5t28 54t22.5 60.5l-166 407h-19q-9 0 -15.5 6t-6.5 15.5t7 16.5t15 7h141q9 0 16 -6.5t7 -16t-7.5 -16t-15.5 -6.5h-39l125 -305l124 305h-34q-9 0 -16 6.5t-7 16t6.5 16t16.5 6.5h103q9 0 16 -7 t7 -16.5t-6.5 -15.5t-16.5 -6h-18l-203 -499q-18 -47 -37 -63q-32 -27 -82 -27q-81 0 -81 29v52zM194.5 640.5q14.5 -14.5 14.5 -35.5t-13.5 -34t-35.5 -13t-35.5 13.5t-13.5 34t14.5 35t34.5 14.5t34.5 -14.5zM373 606q0 -20 -14 -34t-35.5 -14t-35 13t-13.5 34.5 t14.5 35.5t35 14t34.5 -14.5t14 -34.5z" />
<glyph unicode="&#x152;" horiz-adv-x="973" d="M475 579h-78q-123 0 -187.5 -68.5t-64.5 -197.5t65.5 -199t186.5 -70h78v535zM905 20q0 -11 -8 -15.5t-12 -4.5h-494q-162 2 -251.5 83.5t-89.5 228.5t90 230q91 82 251 82l484 -1q17 0 20 -6t3 -16v-86q0 -11 -8 -15.5t-12 -4.5h-10q-4 0 -12.5 4t-8.5 17v56h-287v-216 h204v46q0 13 8.5 17t12.5 4h10q4 0 12 -4.5t8 -15.5v-145q0 -11 -8 -15.5t-12 -4.5h-10q-4 0 -12.5 4t-8.5 17v47h-204v-255h293v56q0 13 9 17t12 4h11q4 0 12 -4.5t8 -15.5v-88z" />
<glyph unicode="&#x153;" horiz-adv-x="845" d="M257 414q-125 0 -125 -192q0 -129 60 -174q25 -19 65 -19q71 0 103 65q22 48 22 128q0 192 -125 192zM712 258q-5 156 -119 156q-61 0 -92 -50q-24 -39 -29 -106h240zM427 374q62 82 166 82q100 0 155 -62q49 -57 55 -157q0 -6 -4.5 -14.5t-18.5 -8.5h-308v-4 q0 -123 68 -164q25 -16 70 -16q89 0 120 89q1 4 4.5 10t17.5 6h17q13 0 17 -10t2 -17q-46 -121 -189 -121q-113 0 -172 82q-58 -81 -170 -81q-101 0 -159 68q-55 64 -55 166q0 103 55 166q59 68 165.5 68t163.5 -82z" />
<glyph unicode="&#x178;" horiz-adv-x="564" d="M237 772.5q15 -14.5 15 -35t-14 -34t-35 -13.5t-35 14t-14 34t14.5 34.5t34 14.5t34.5 -14.5zM413 738q0 -20 -13 -34t-34.5 -14t-35.5 13.5t-14 34t15 35t34.5 14.5t33.5 -14.5t14 -34.5zM555 616.5q7 -6.5 7 -16t-6.5 -15.5t-15.5 -6h-27l-187 -303v-231h47 q10 0 16.5 -6.5t6.5 -16t-7 -16t-16 -6.5h-179q-10 0 -16.5 6t-6.5 15.5t7 16.5t16 7h47v224l-193 310h-25q-10 0 -16.5 6t-6.5 15.5t7 16t16 6.5h167q9 0 16 -6t7 -15.5t-7.5 -16t-15.5 -6.5h-41l156 -252l156 252h-38q-9 0 -16 6.5t-7 16t6.5 15.5t16.5 6h117q8 0 15 -6.5 z" />
<glyph unicode="&#x192;" horiz-adv-x="525" d="M550 716q10 -9 10 -18t-3 -16l-274 -663q-2 -6 -11.5 -12.5t-16.5 -6.5h-34q-17 0 -26 15l-180 303q-5 8 -5 18.5t9.5 19.5t24.5 9t24 -16l100 -175l55 -130h26l35 129l216 532q8 20 24 20t26 -9z" />
<glyph unicode="&#x2c6;" horiz-adv-x="427" d="M92 542q0 5 5 12.5t8 12.5l68 108q9 9 19 9h44q10 0 19 -9l68 -108q3 -5 8 -12.5t5 -12.5q0 -15 -20 -15q-18 0 -24 9l-78 100l-78 -101q-6 -8 -25 -8t-19 15z" />
<glyph unicode="&#x2c7;" horiz-adv-x="450" d="M345 697q0 -5 -5 -12.5t-8 -12.5l-68 -108q-6 -9 -19 -9h-43q-13 0 -19 9l-68 108q-14 18 -14 25q0 15 20 15q19 0 24 -8l78 -101l79 100q6 9 24.5 9t18.5 -15z" />
<glyph unicode="&#x2d8;" horiz-adv-x="450" d="M356 697q3 -11 3 -23t-9 -29.5t-26 -31.5q-40 -32 -98 -32q-60 0 -99 32q-36 30 -36 66q0 7 2.5 18t16.5 11t18.5 -7.5t6.5 -12.5q10 -29 34 -39t56 -10t56 10t34 39q2 5 6.5 12.5t18 7.5t16.5 -11z" />
<glyph unicode="&#x2d9;" horiz-adv-x="450" d="M261 674q15 -15 15 -37t-14 -36t-37 -14t-37 14t-14 36t15 37t36 15t36 -15z" />
<glyph unicode="&#x2da;" horiz-adv-x="450" d="M273 622q19 19 19 47.5t-19.5 47.5t-48 19t-47.5 -18.5t-19 -47.5t19 -48t48 -19t48 19zM345 670q0 -26 -9 -48t-26 -38q-36 -35 -85 -35t-85 35q-35 33 -35 86q0 51 34.5 85.5t85.5 34.5t85.5 -34.5t34.5 -85.5z" />
<glyph unicode="&#x2db;" horiz-adv-x="450" d="M310 -134q0 -32 -73 -32q-67 0 -91 37q-9 14 -9 36q0 38 38 78q14 15 25 15q22 0 22 -13q0 -7 -10 -20q-18 -25 -18 -40q-2 -38 51 -41l39 3q11 -1 18.5 -5.5t7.5 -17.5z" />
<glyph unicode="&#x2dc;" horiz-adv-x="427" d="M344 658q7 -6 7 -18.5t-5 -29.5t-15 -32q-22 -32 -61 -32q-33 0 -64 32q-12 13 -23.5 23t-28.5 10q-29 0 -35 -47q-4 -18 -20 -18q-9 0 -15.5 6t-6.5 18.5t5 29.5t14 31q23 33 62 33q22 0 37 -10t27.5 -22.5t24 -22.5t28.5 -10q28 0 34 47q4 18 20 18q8 0 15 -6z" />
<glyph unicode="&#x2dd;" horiz-adv-x="450" d="M123 536q-10 -10 -26.5 -10t-16.5 15q0 9 13 25l75 108q9 9 19 9h33q18 0 18 -10q0 -11 -7 -18zM264 536q-10 -10 -26.5 -10t-16.5 15q0 9 13 25l75 108q9 9 19 9h33q18 0 18 -10q0 -11 -7 -18z" />
<glyph unicode="&#x5b0;" d="M40 -237q0 -17 -11.5 -28.5t-28.5 -11.5t-28.5 11.5t-11.5 28.5t11.5 28.5t28.5 11.5t28.5 -11.5t11.5 -28.5zM40 -116q0 -17 -11.5 -28.5t-28.5 -11.5t-28.5 11.5t-11.5 28.5t11.5 28.5t28.5 11.5t28.5 -11.5t11.5 -28.5z" />
<glyph unicode="&#x5b1;" d="M-24 -237q0 -17 -11.5 -28.5t-28.5 -11.5t-28.5 11.5t-11.5 28.5t11.5 28.5t28.5 11.5t28.5 -11.5t11.5 -28.5zM-90 -116q0 -17 -11.5 -28.5t-28.5 -11.5t-28.5 11.5t-11.5 28.5t11.5 28.5t28.5 11.5t28.5 -11.5t11.5 -28.5zM42 -116q0 -17 -11.5 -28.5t-28.5 -11.5 t-28.5 11.5t-11.5 28.5t11.5 28.5t28.5 11.5t28.5 -11.5t11.5 -28.5zM168 -237q0 -17 -11.5 -28.5t-28.5 -11.5t-28.5 11.5t-11.5 28.5t11.5 28.5t28.5 11.5t28.5 -11.5t11.5 -28.5zM168 -116q0 -17 -11.5 -28.5t-28.5 -11.5t-28.5 11.5t-11.5 28.5t11.5 28.5t28.5 11.5 t28.5 -11.5t11.5 -28.5z" />
<glyph unicode="&#x5b2;" d="M34 -122q0 -8 -2.5 -11t-11.5 -3h-160q-9 0 -11.5 3t-2.5 11v22q0 9 2.5 11.5t11.5 2.5h160q8 0 11 -2.5t3 -11.5v-22zM154 -237q0 -17 -11.5 -28.5t-28.5 -11.5t-28.5 11.5t-11.5 28.5t11.5 28.5t28.5 11.5t28.5 -11.5t11.5 -28.5zM154 -116q0 -17 -11.5 -28.5 t-28.5 -11.5t-28.5 11.5t-11.5 28.5t11.5 28.5t28.5 11.5t28.5 -11.5t11.5 -28.5z" />
<glyph unicode="&#x5b3;" d="M34 -122q0 -8 -2.5 -11t-11.5 -3h-58l5 -39v-81q0 -8 -2.5 -10t-10.5 -2h-28q-8 0 -10.5 2t-2.5 10v81l5 39h-58q-9 0 -11.5 3t-2.5 11v22q0 9 2.5 11.5t11.5 2.5h160q8 0 11 -2.5t3 -11.5v-22zM154 -237q0 -17 -11.5 -28.5t-28.5 -11.5t-28.5 11.5t-11.5 28.5t11.5 28.5 t28.5 11.5t28.5 -11.5t11.5 -28.5zM154 -116q0 -17 -11.5 -28.5t-28.5 -11.5t-28.5 11.5t-11.5 28.5t11.5 28.5t28.5 11.5t28.5 -11.5t11.5 -28.5z" />
<glyph unicode="&#x5b4;" d="M40 -116q0 -17 -11.5 -28.5t-28.5 -11.5t-28.5 11.5t-11.5 28.5t11.5 28.5t28.5 11.5t28.5 -11.5t11.5 -28.5z" />
<glyph unicode="&#x5b5;" d="M-30 -116q0 -17 -11.5 -28.5t-28.5 -11.5t-28.5 11.5t-11.5 28.5t11.5 28.5t28.5 11.5t28.5 -11.5t11.5 -28.5zM110 -116q0 -17 -11.5 -28.5t-28.5 -11.5t-28.5 11.5t-11.5 28.5t11.5 28.5t28.5 11.5t28.5 -11.5t11.5 -28.5z" />
<glyph unicode="&#x5b6;" d="M40 -237q0 -17 -11.5 -28.5t-28.5 -11.5t-28.5 11.5t-11.5 28.5t11.5 28.5t28.5 11.5t28.5 -11.5t11.5 -28.5zM-28 -116q0 -17 -11.5 -28.5t-28.5 -11.5t-28.5 11.5t-11.5 28.5t11.5 28.5t28.5 11.5t28.5 -11.5t11.5 -28.5zM108 -116q0 -17 -11.5 -28.5t-28.5 -11.5 t-28.5 11.5t-11.5 28.5t11.5 28.5t28.5 11.5t28.5 -11.5t11.5 -28.5z" />
<glyph unicode="&#x5b7;" d="M91.5 -133q-2.5 -3 -11.5 -3h-160q-9 0 -11.5 3t-2.5 11v22q0 9 2.5 11.5t11.5 2.5h160q8 0 11 -2.5t3 -11.5v-22q0 -8 -2.5 -11z" />
<glyph unicode="&#x5b8;" d="M91.5 -133q-2.5 -3 -11.5 -3h-58l5 -39v-81q0 -8 -2.5 -10t-10.5 -2h-28q-8 0 -10.5 2t-2.5 10v81l5 39h-58q-9 0 -11.5 3t-2.5 11v22q0 9 2.5 11.5t11.5 2.5h160q8 0 11 -2.5t3 -11.5v-22q0 -8 -2.5 -11z" />
<glyph unicode="&#x5b9;" d="M40 582q0 -17 -11.5 -28.5t-28.5 -11.5t-28.5 11.5t-11.5 28.5t11.5 28.5t28.5 11.5t28.5 -11.5t11.5 -28.5z" />
<glyph unicode="&#x5bb;" d="M-64 -113q0 -17 -11.5 -28.5t-28.5 -11.5t-28.5 11.5t-11.5 28.5t11.5 28.5t28.5 11.5t28.5 -11.5t11.5 -28.5zM40 -175q0 -17 -11.5 -28.5t-28.5 -11.5t-28.5 11.5t-11.5 28.5t11.5 28.5t28.5 11.5t28.5 -11.5t11.5 -28.5zM144 -237q0 -17 -11.5 -28.5t-28.5 -11.5 t-28.5 11.5t-11.5 28.5t11.5 28.5t28.5 11.5t28.5 -11.5t11.5 -28.5z" />
<glyph unicode="&#x5bc;" d="M40 240q0 -17 -11.5 -28.5t-28.5 -11.5t-28.5 11.5t-11.5 28.5t11.5 28.5t28.5 11.5t28.5 -11.5t11.5 -28.5z" />
<glyph unicode="&#x5bd;" horiz-adv-x="1000" />
<glyph unicode="&#x5be;" horiz-adv-x="257" d="M15 440v71h202v-71h-202z" />
<glyph unicode="&#x5bf;" horiz-adv-x="323" d="M35 220v71h238v-71h-238z" />
<glyph unicode="&#x5c1;" d="M40 582q0 -17 -11.5 -28.5t-28.5 -11.5t-28.5 11.5t-11.5 28.5t11.5 28.5t28.5 11.5t28.5 -11.5t11.5 -28.5z" />
<glyph unicode="&#x5c2;" d="M40 582q0 -17 -11.5 -28.5t-28.5 -11.5t-28.5 11.5t-11.5 28.5t11.5 28.5t28.5 11.5t28.5 -11.5t11.5 -28.5z" />
<glyph unicode="&#x5d0;" horiz-adv-x="577" d="M474 -16l-193 192l-86 125l-97 -301h-88l123 373l-83 107l64 53l204 -272l99 250h110v-71h-43l-107 -246l160 -155z" />
<glyph unicode="&#x5d1;" horiz-adv-x="493" d="M248 511q142 0 142 -157v-283h63v-71h-413v71h263v284q0 36 -16 60.5t-60 24.5h-187v71h208z" />
<glyph unicode="&#x5d2;" horiz-adv-x="333" d="M227 0l-33 96l-140 -123l-54 64l167 136l-14 267h-80v71h132q11 0 18.5 -8t8.5 -18l18 -307l63 -178h-86z" />
<glyph unicode="&#x5d3;" horiz-adv-x="484" d="M364 440v-440h-86v440h-238v71h404v-71h-80z" />
<glyph unicode="&#x5d4;" horiz-adv-x="537" d="M326 511q141 0 141 -157v-354h-86v355q0 36 -16 60.5t-60 24.5h-235v71h256zM70 0v295h87v-295h-87z" />
<glyph unicode="&#x5d5;" horiz-adv-x="277" d="M110 0v440h-70v71h145q12 0 12 -12v-499h-87z" />
<glyph unicode="&#x5d6;" horiz-adv-x="286" d="M161 440l61 -440h-92l-51 440h-39v71h196v-71h-75z" />
<glyph unicode="&#x5d7;" horiz-adv-x="565" d="M398 0v440h-231v-440h-87v511h393q12 0 12 -12v-499h-87z" />
<glyph unicode="&#x5d8;" horiz-adv-x="601" d="M521 173q0 -80 -53 -130q-56 -53 -162 -53q-108 0 -168 53q-58 50 -58 130v338h86l1 -338q0 -45 33.5 -76.5t105.5 -31.5q66 0 100 31q29 26 29 76v231l4 43h-7l-133 -137l-60 61l137 134q7 7 17 7h117q11 0 11 -12v-326z" />
<glyph unicode="&#x5d9;" horiz-adv-x="271" d="M114 239v201h-74v71h149q12 0 12 -12v-260h-87z" />
<glyph unicode="&#x5da;" horiz-adv-x="451" d="M284 -160v600h-244v71h319q12 0 12 -12v-659h-87z" />
<glyph unicode="&#x5db;" horiz-adv-x="468" d="M388 158q0 -67 -42 -112q-45 -46 -115 -46h-191v71h154q60 0 84 26.5t24 77.5v265h-262v71h336q12 0 12 -12v-341z" />
<glyph unicode="&#x5dc;" horiz-adv-x="508" d="M257 0h-93l208 440h-322v192h86v-121h320q11 0 11 -12l1 -59z" />
<glyph unicode="&#x5dd;" horiz-adv-x="558" d="M478 14q0 -12 -12 -14h-414q-12 -2 -12 10v489q0 12 12 12h414q12 0 12 -12v-485zM127 440v-369h264v369h-264z" />
<glyph unicode="&#x5de;" horiz-adv-x="573" d="M481 0h-211v71h147v258q0 44 -25 77q-29 38 -76 34h-102l-48 -440h-88l52 440h-75v71h261q86 0 137 -53q50 -51 50 -129v-269z" />
<glyph unicode="&#x5df;" horiz-adv-x="259" d="M93 -160v600h-53v71h128q11 0 11 -12v-659h-86z" />
<glyph unicode="&#x5e0;" horiz-adv-x="350" d="M270 157q0 -157 -141 -157h-89v71h68q44 0 60 24.5t16 61.5v283h-102v71h176q12 0 12 -12v-342z" />
<glyph unicode="&#x5e1;" horiz-adv-x="565" d="M495 198q0 -85 -46 -141q-54 -65 -156 -65t-161 65q-52 56 -52 141v313h272q63 0 103 -40.5t40 -116.5v-156zM408 355q0 85 -94 85h-147v-243q0 -49 29 -88q34 -46 97 -46q64 0 93 47q22 34 22 87v158z" />
<glyph unicode="&#x5e2;" horiz-adv-x="542" d="M462 211q0 -62 -39 -110q-35 -42 -93 -64l-264 -90l-26 77l147 44l-120 443h86l112 -419q51 15 71 33q40 34 40 86v229h-58v71h131q13 0 13 -13v-287z" />
<glyph unicode="&#x5e3;" horiz-adv-x="525" d="M358 -160v600h-195l-20 -178h107v-71h-183q-12 -2 -12 9l36 311h342q12 0 12 -12v-659h-87z" />
<glyph unicode="&#x5e4;" horiz-adv-x="557" d="M477 158q0 -67 -43 -112q-44 -46 -114 -46h-260v71h223q60 0 84 26.5t24 77.5v265h-222l-20 -178h85v-71h-161q-11 -2 -11 10l35 310h369q11 0 11 -12v-341z" />
<glyph unicode="&#x5e5;" horiz-adv-x="477" d="M412 440l-121 -241l56 -91v-268h-86v252l-241 390l67 46l155 -262l109 245h96v-71h-35z" />
<glyph unicode="&#x5e6;" horiz-adv-x="487" d="M445 0h-390v71h294l-129 109l-190 298l70 46l155 -259l111 246h91v-71h-29l-114 -231l143 -138z" />
<glyph unicode="&#x5e7;" horiz-adv-x="589" d="M549 440l-211 -440h-92l208 440h-374v71h453q16 0 16 -16v-55zM86 -160v504h87v-504h-87z" />
<glyph unicode="&#x5e8;" horiz-adv-x="456" d="M289 0v440h-249v71h324q12 0 12 -12v-499h-87z" />
<glyph unicode="&#x5e9;" horiz-adv-x="727" d="M368 -8q-142 0 -275 56v392h-48v71h123q12 0 12 -12v-400q23 -11 65.5 -20t75.5 -11v443h86v-443q66 8 112 49q41 37 41 79v315h87v-314q0 -90 -83 -149q-80 -56 -196 -56z" />
<glyph unicode="&#x5ea;" horiz-adv-x="584" d="M362 511q142 0 142 -157v-354h-87v355q0 36 -16 60.5t-60 24.5h-156v-428q0 -12 -12 -12h-153v71h78v440h264z" />
<glyph unicode="&#x5f3;" horiz-adv-x="142" d="M45 389l-25 13l23 104v103h89v-83z" />
<glyph unicode="&#x5f4;" horiz-adv-x="302" d="M191 389l-26 13l23 104v103h89v-83zM50 389l-25 13l23 104v103h89v-83z" />
<glyph unicode="&#x2010;" horiz-adv-x="323" d="M35 220v71h238v-71h-238z" />
<glyph unicode="&#x2013;" horiz-adv-x="257" d="M15 440v71h202v-71h-202z" />
<glyph unicode="&#x2014;" horiz-adv-x="323" d="M35 220v71h238v-71h-238z" />
<glyph unicode="&#x2018;" horiz-adv-x="142" d="M45 389l-25 13l23 104v103h89v-83z" />
<glyph unicode="&#x2019;" horiz-adv-x="142" d="M45 389l-25 13l23 104v103h89v-83z" />
<glyph unicode="&#x201a;" horiz-adv-x="162" d="M100 519h-60l27 193h93z" />
<glyph unicode="&#x201c;" horiz-adv-x="302" d="M191 389l-26 13l23 104v103h89v-83zM50 389l-25 13l23 104v103h89v-83z" />
<glyph unicode="&#x201d;" horiz-adv-x="302" d="M191 389l-26 13l23 104v103h89v-83zM50 389l-25 13l23 104v103h89v-83z" />
<glyph unicode="&#x201e;" horiz-adv-x="300" d="M210 519h-60l28 193h92zM90 519h-60l28 193h92z" />
<glyph unicode="&#x2020;" horiz-adv-x="427" d="M404 418q0 -15 -11 -27t-26 -10l-130 12l12 -441q0 -14 -10.5 -24.5t-25 -10.5t-26 10.5t-10.5 25.5l14 440l-132 -12q-13 -2 -24.5 9.5t-11.5 26t11 26.5t26 10l130 -15l-12 149q-2 14 9.5 25t26 11t26 -10.5t9.5 -25.5l-12 -148l131 14q15 2 25.5 -9t10.5 -26z" />
<glyph unicode="&#x2021;" horiz-adv-x="427" d="M393.5 152.5q10.5 -11.5 10.5 -26t-11 -26.5t-26 -10l-130 12l12 -150q1 -14 -10 -24.5t-25.5 -10.5t-26.5 10.5t-10 25.5l14 149l-132 -12q-13 -2 -24.5 9.5t-11.5 26t11 26.5t26 10l130 -15q-2 31 -8 61.5t-6 62t6.5 61.5t8.5 61l-132 -12q-13 -2 -24.5 9.5t-11.5 26 t11 26.5t26 10l130 -15l-12 149q-2 14 9.5 25t26 11t26 -10.5t9.5 -25.5l-12 -148l131 14q15 2 25.5 -9t10.5 -26t-11 -27t-26 -10l-130 12q4 -30 9.5 -61t5.5 -61.5t-5.5 -62t-9.5 -60.5l131 14q15 2 25.5 -9.5z" />
<glyph unicode="&#x2022;" horiz-adv-x="350" d="M264.5 243.5q-35.5 -35.5 -87.5 -35.5q-51 0 -86.5 35.5t-35.5 87t34.5 87t87 35.5t88 -35.5t35.5 -87t-35.5 -87z" />
<glyph unicode="&#x2026;" horiz-adv-x="535" d="M465 31q0 -44 -44 -44t-44 44v28q0 44 44 44t44 -44v-28zM287 31q0 -46 -44 -46t-44 46v28q0 45 44 45t44 -45v-28zM108 31q0 -44 -44 -44t-44 44v28q0 44 44 44t44 -44v-28z" />
<glyph unicode="&#x2030;" horiz-adv-x="1148" d="M192 596q-44 0 -64 -47q-14 -34 -14 -84q0 -83 39 -119q15 -13 39 -13q43 0 62 47q15 34 15 69q0 147 -77 147zM698 158q0 85 -38 118q-15 13 -39 13q-62 0 -74 -89q-3 -23 -3 -42q0 -83 38 -118q15 -13 39 -13q62 0 74 89q3 23 3 42zM957 290q-42 0 -63 -48 q-15 -34 -15 -68.5t3 -57t12 -42.5q21 -47 63 -47q43 0 63 47q14 34 14 68q0 148 -77 148zM335 465q0 -116 -79 -156q-28 -14 -65.5 -14t-64.5 14t-44 37q-35 47 -35 119q0 115 80 156q27 14 64 14q69 0 109 -51q35 -45 35 -119zM605 627q7 -8 7 -17.5t-6 -18.5l-354 -589 q-10 -15 -24.5 -15t-21.5 8t-7 15q0 10 4 18l357 591q9 16 23.5 16t21.5 -8zM766 158q0 -115 -80 -156q-28 -14 -65 -14q-70 0 -109 50q-35 46 -35 120q0 115 80 156q27 14 64 14q71 0 110 -52q35 -45 35 -118zM1100 158q0 -115 -79 -156q-27 -14 -64.5 -14t-64.5 13.5 t-45 36.5q-35 46 -35 120q0 115 80 156q27 14 64.5 14t64.5 -14t45 -38q34 -46 34 -118z" />
<glyph unicode="&#x2039;" horiz-adv-x="342" d="M267 90q0 -14 -15 -14q-9 0 -17 8l-162 143q-7 3 -7 15v17q0 13 7 16l162 143q11 8 17 8q15 0 15 -15q0 -9 -5 -16l-124 -144l124 -145q5 -6 5 -16z" />
<glyph unicode="&#x203a;" horiz-adv-x="342" d="M276 242q0 -8 -7 -15l-162 -143q-8 -8 -17 -8q-15 0 -15 14q0 10 5 16l124 145l-124 144q-5 7 -5 16q0 15 15 15q6 0 17 -8l162 -143q7 -7 7 -16v-17z" />
<glyph unicode="&#x20aa;" horiz-adv-x="916" d="M846 197q0 -90 -84 -149q-79 -56 -194 -56q-98 0 -195 28q-44 12 -80 28v303h86v-253q42 -15 96.5 -22t95 -7t76 10.5t61.5 27.5q52 35 52 89v244h-40v71h115q11 0 11 -12v-302zM517 149v291h-361v-440h-86v511h521q5 0 8.5 -3.5t3.5 -8.5v-350h-86z" />
<glyph unicode="&#x20ac;" horiz-adv-x="473" d="M85 225q0 22 2 42h-48q-8 0 -10 2.5t-2 8.5v16q0 9 2 13t13 4h51q17 87 68.5 135t126.5 48q46 0 97 -26q47 -23 47 -36q0 -2 -3 -8l-21 -39q-4 -6 -6 -6t-10.5 7.5t-23.5 16.5q-38 24 -74 24q-57 0 -85 -31t-37 -85h166q11 0 13 -4t2 -13v-16q0 -11 -17 -11h-168 q-1 -7 -1 -13v-28q0 -6 1 -13h172q11 0 13 -4t2 -13v-16q0 -11 -17 -11h-166q7 -48 32 -82t78 -34q55 0 110 35q11 6 13 6t6 -6l17 -42q3 -6 3 -9t-14.5 -11.5t-36.5 -17.5q-56 -22 -107 -22q-78 0 -125.5 49t-58.5 134h-48q-8 0 -10 2.5t-2 8.5v16q0 9 2 13t13 4h41v12z " />
<glyph unicode="&#x2122;" horiz-adv-x="1000" d="M239 318v339h-129v59h325v-59h-130v-339h-66zM479 318v398h98l101 -318l97 318h96v-398h-61v334l-102 -334h-61l-106 339v-339h-62z" />
<glyph unicode="&#xe000;" horiz-adv-x="380" d="M0 380h380v-380h-380v380z" />
<glyph unicode="&#xfb01;" horiz-adv-x="570" d="M545 38.5q7 -6.5 7 -16t-7 -16t-16 -6.5h-178q-10 0 -16.5 6t-6.5 15.5t7 16.5t16 7h50v354h-220v-354h51q9 0 16 -6.5t7 -16t-7.5 -16t-15.5 -6.5h-179q-9 0 -16 6t-7 15.5t7.5 16.5t15.5 7h51v354h-50q-9 0 -16 6t-7 15.5t7.5 16.5t15.5 7h50q0 30 1 59t13.5 56.5 t32 45t42.5 27.5q41 18 92 18q94 0 146 -19q16 -6 16 -22v-54q0 -6 -4.5 -10t-10.5 -4h-12q-8 0 -10.5 6t-3.5 10q-11 52 -102 52q-81 0 -106 -46q-12 -22 -14.5 -52.5t-2.5 -66.5h274q9 0 16 -6.5t7 -15.5v-377h51q9 0 16 -6.5z" />
<glyph unicode="&#xfb02;" horiz-adv-x="570" d="M538.5 38.5q6.5 -6.5 6.5 -16t-7 -16t-16 -6.5h-177q-10 0 -16.5 6t-6.5 15.5t7 16.5t16 7h50v560h-91q-81 0 -106 -41q-12 -20 -14.5 -50.5t-2.5 -69.5h100q10 0 16.5 -6.5t6.5 -16t-7 -16t-16 -6.5h-100v-354h51q9 0 16 -6.5t7 -16t-7.5 -16t-15.5 -6.5h-179 q-9 0 -16 6t-7 15.5t7.5 16.5t15.5 7h51v354h-50q-9 0 -16 6t-7 15.5t7.5 16.5t15.5 7h50q0 30 1 59t13.5 56.5t32 45t42.5 27.5q41 18 104 18h152q10 0 16.5 -6.5t6.5 -15.5v-583h50q10 0 16.5 -6.5z" />
<glyph unicode="&#xfb1f;" horiz-adv-x="1000" />
<glyph unicode="&#xfb2a;" d="M40 -116q0 -17 -11.5 -28.5t-28.5 -11.5t-28.5 11.5t-11.5 28.5t11.5 28.5t28.5 11.5t28.5 -11.5t11.5 -28.5z" />
<glyph unicode="&#xfb2b;" d="M40 -116q0 -17 -11.5 -28.5t-28.5 -11.5t-28.5 11.5t-11.5 28.5t11.5 28.5t28.5 11.5t28.5 -11.5t11.5 -28.5z" />
<glyph unicode="&#xfb2c;" d="M40 -116q0 -17 -11.5 -28.5t-28.5 -11.5t-28.5 11.5t-11.5 28.5t11.5 28.5t28.5 11.5t28.5 -11.5t11.5 -28.5z" />
<glyph unicode="&#xfb2d;" d="M40 -116q0 -17 -11.5 -28.5t-28.5 -11.5t-28.5 11.5t-11.5 28.5t11.5 28.5t28.5 11.5t28.5 -11.5t11.5 -28.5z" />
<glyph unicode="&#xfb31;" d="M40 -116q0 -17 -11.5 -28.5t-28.5 -11.5t-28.5 11.5t-11.5 28.5t11.5 28.5t28.5 11.5t28.5 -11.5t11.5 -28.5z" />
<glyph unicode="&#xfb32;" d="M40 -116q0 -17 -11.5 -28.5t-28.5 -11.5t-28.5 11.5t-11.5 28.5t11.5 28.5t28.5 11.5t28.5 -11.5t11.5 -28.5z" />
<glyph unicode="&#xfb33;" d="M40 -116q0 -17 -11.5 -28.5t-28.5 -11.5t-28.5 11.5t-11.5 28.5t11.5 28.5t28.5 11.5t28.5 -11.5t11.5 -28.5z" />
<glyph unicode="&#xfb34;" d="M40 -116q0 -17 -11.5 -28.5t-28.5 -11.5t-28.5 11.5t-11.5 28.5t11.5 28.5t28.5 11.5t28.5 -11.5t11.5 -28.5z" />
<glyph unicode="&#xfb35;" d="M40 -116q0 -17 -11.5 -28.5t-28.5 -11.5t-28.5 11.5t-11.5 28.5t11.5 28.5t28.5 11.5t28.5 -11.5t11.5 -28.5z" />
<glyph unicode="&#xfb36;" d="M40 -116q0 -17 -11.5 -28.5t-28.5 -11.5t-28.5 11.5t-11.5 28.5t11.5 28.5t28.5 11.5t28.5 -11.5t11.5 -28.5z" />
<glyph unicode="&#xfb38;" d="M40 -116q0 -17 -11.5 -28.5t-28.5 -11.5t-28.5 11.5t-11.5 28.5t11.5 28.5t28.5 11.5t28.5 -11.5t11.5 -28.5z" />
<glyph unicode="&#xfb39;" d="M40 -116q0 -17 -11.5 -28.5t-28.5 -11.5t-28.5 11.5t-11.5 28.5t11.5 28.5t28.5 11.5t28.5 -11.5t11.5 -28.5z" />
<glyph unicode="&#xfb3a;" d="M40 -116q0 -17 -11.5 -28.5t-28.5 -11.5t-28.5 11.5t-11.5 28.5t11.5 28.5t28.5 11.5t28.5 -11.5t11.5 -28.5z" />
<glyph unicode="&#xfb3b;" d="M40 -116q0 -17 -11.5 -28.5t-28.5 -11.5t-28.5 11.5t-11.5 28.5t11.5 28.5t28.5 11.5t28.5 -11.5t11.5 -28.5z" />
<glyph unicode="&#xfb3c;" d="M40 -116q0 -17 -11.5 -28.5t-28.5 -11.5t-28.5 11.5t-11.5 28.5t11.5 28.5t28.5 11.5t28.5 -11.5t11.5 -28.5z" />
<glyph unicode="&#xfb3e;" d="M40 -116q0 -17 -11.5 -28.5t-28.5 -11.5t-28.5 11.5t-11.5 28.5t11.5 28.5t28.5 11.5t28.5 -11.5t11.5 -28.5z" />
<glyph unicode="&#xfb40;" d="M40 -116q0 -17 -11.5 -28.5t-28.5 -11.5t-28.5 11.5t-11.5 28.5t11.5 28.5t28.5 11.5t28.5 -11.5t11.5 -28.5z" />
<glyph unicode="&#xfb41;" d="M40 -116q0 -17 -11.5 -28.5t-28.5 -11.5t-28.5 11.5t-11.5 28.5t11.5 28.5t28.5 11.5t28.5 -11.5t11.5 -28.5z" />
<glyph unicode="&#xfb44;" d="M40 -116q0 -17 -11.5 -28.5t-28.5 -11.5t-28.5 11.5t-11.5 28.5t11.5 28.5t28.5 11.5t28.5 -11.5t11.5 -28.5z" />
<glyph unicode="&#xfb46;" d="M40 -116q0 -17 -11.5 -28.5t-28.5 -11.5t-28.5 11.5t-11.5 28.5t11.5 28.5t28.5 11.5t28.5 -11.5t11.5 -28.5z" />
<glyph unicode="&#xfb47;" d="M40 -116q0 -17 -11.5 -28.5t-28.5 -11.5t-28.5 11.5t-11.5 28.5t11.5 28.5t28.5 11.5t28.5 -11.5t11.5 -28.5z" />
<glyph unicode="&#xfb49;" d="M40 -116q0 -17 -11.5 -28.5t-28.5 -11.5t-28.5 11.5t-11.5 28.5t11.5 28.5t28.5 11.5t28.5 -11.5t11.5 -28.5z" />
<glyph unicode="&#xfb4a;" d="M40 -116q0 -17 -11.5 -28.5t-28.5 -11.5t-28.5 11.5t-11.5 28.5t11.5 28.5t28.5 11.5t28.5 -11.5t11.5 -28.5z" />
<glyph unicode="&#xfb4b;" d="M40 -116q0 -17 -11.5 -28.5t-28.5 -11.5t-28.5 11.5t-11.5 28.5t11.5 28.5t28.5 11.5t28.5 -11.5t11.5 -28.5z" />
</font>
</defs>
</svg>
